<svg width="460" height="651" viewBox="0 0 460 651" fill="none" xmlns="http://www.w3.org/2000/svg">
<path d="M201.552 82.157C193.403 85.0749 186.217 90.1823 180.781 96.9182C175.346 103.654 171.872 111.758 170.742 120.339C168.833 133.6 172.161 147.084 180.021 157.935C187.88 168.786 199.655 176.152 212.85 178.473C222.688 180.134 232.798 178.694 241.781 174.352C241.718 176.095 241.693 177.837 241.718 179.583C241.747 181.768 241.262 185.611 243.837 186.601C246.104 187.474 247.958 185.041 248.603 183.177C249.243 181.291 249.709 179.349 249.994 177.377C250.454 178.073 251.09 178.635 251.838 179.007C252.585 179.378 253.417 179.546 254.25 179.493C254.676 179.438 255.093 179.328 255.49 179.165C255.834 179.023 256.156 178.834 256.446 178.602C256.88 178.274 257.223 177.839 257.441 177.34C257.659 176.842 257.746 176.295 257.693 175.753C257.662 175.525 257.604 175.302 257.521 175.087C258.511 175.525 259.615 175.633 260.671 175.396C261.241 175.225 261.771 174.94 262.227 174.557C262.683 174.175 263.056 173.703 263.324 173.171C263.591 172.639 263.747 172.058 263.782 171.464C263.817 170.87 263.73 170.275 263.526 169.715C262.668 167.137 261.036 164.886 258.852 163.27C258.372 162.876 257.876 162.48 257.365 162.127C263.725 154.583 267.952 145.475 269.606 135.747C270.38 131.234 270.559 126.639 270.137 122.08C261.75 125.54 252.56 126.577 243.612 125.074C232.985 123.238 223.205 118.105 215.656 110.403C208.108 102.7 203.173 92.8188 201.552 82.157ZM255.813 163.877C256.401 164.287 256.967 164.726 257.51 165.193C259.205 166.649 262.039 169.326 261.349 171.9C260.551 174.882 256.632 171.923 255.479 170.898C255.295 170.757 255.074 170.672 254.843 170.654C254.612 170.636 254.381 170.686 254.178 170.798C253.975 170.909 253.808 171.078 253.7 171.282C253.591 171.487 253.544 171.719 253.565 171.95C253.728 173.018 254.167 174.025 254.839 174.87C255.279 175.545 255.732 176.363 254.85 176.883C252.511 178.266 250.983 174.789 250.302 173.188C249.88 172.189 248.115 172.212 248.044 173.442C247.913 175.906 247.53 178.351 246.903 180.739C246.768 181.239 245.558 185.328 244.49 184.243C243.973 183.719 244.142 182.207 244.117 181.554C244.068 180.306 244.047 179.057 244.054 177.807C244.06 176.229 244.107 174.652 244.196 173.077C248.511 170.622 252.425 167.519 255.8 163.878L255.813 163.877Z" fill="#FCAFB7"/>
<path d="M283.257 118.751L280.572 115.956C291.114 107.602 298.171 95.6243 300.37 82.3542C303.746 62.4739 296.067 41.0664 273.166 30.7158C242.455 16.8239 206.667 32.4788 201.494 66.9603C200.742 72.0013 200.764 77.1275 201.561 82.1616C214.911 77.4449 229.577 78.1412 242.42 84.1015C250.073 87.2881 256.705 92.5125 261.595 99.2064C266.486 105.9 269.446 113.807 270.155 122.066C273.156 120.798 276.016 119.219 278.688 117.354L280.422 119.159C282.088 120.568 283.498 122.254 284.592 124.142C284.785 124.466 284.887 124.835 284.889 125.211C284.892 125.587 284.794 125.957 284.605 126.283C284.398 126.523 284.137 126.711 283.844 126.832C283.551 126.954 283.234 127.005 282.918 126.983C280.979 126.954 279.636 125.12 278.555 123.754C277.751 122.742 275.934 123.623 276.51 124.885C276.717 125.287 276.775 125.748 276.675 126.189C276.575 126.629 276.322 127.02 275.961 127.292C275.573 127.522 275.117 127.61 274.671 127.541C274.225 127.473 273.817 127.252 273.515 126.916C273.272 126.722 272.962 126.631 272.653 126.664C272.343 126.696 272.059 126.849 271.861 127.09C271.67 127.334 271.581 127.643 271.613 127.951C271.645 128.259 271.795 128.544 272.032 128.743C272.681 129.358 273.507 129.754 274.393 129.873C275.279 129.993 276.18 129.831 276.969 129.41C277.102 129.345 277.231 129.27 277.355 129.188C277.955 128.752 278.425 128.161 278.714 127.478C279.738 128.528 281.098 129.184 282.557 129.332C283.134 129.411 283.72 129.366 284.279 129.202C284.837 129.038 285.354 128.757 285.796 128.379C286.239 128.001 286.596 127.533 286.845 127.007C287.093 126.481 287.228 125.908 287.24 125.326C287.213 122.614 284.968 120.533 283.257 118.751Z" fill="#FCAFB7"/>
<path d="M247.81 360.486C271.193 351.71 288.024 313.131 291.062 305.746C288.485 306.009 285.887 306.019 283.307 305.775C276.094 305.095 268.99 303.543 262.151 301.153C258.005 311.416 251.4 320.502 242.917 327.613C235.816 333.424 227.507 337.578 218.596 339.771C218.622 341.576 218.056 343.34 216.983 344.793C215.91 346.245 214.39 347.305 212.657 347.81C207.372 349.779 199.723 350.637 194.636 347.668C192.557 346.444 190.896 344.622 189.869 342.439C189.587 341.69 189.335 340.929 189.114 340.159C182.499 338.95 175.876 337.458 169.591 336.952C157.405 335.977 146.096 338.513 134.499 333.709C123.065 328.938 112.35 322.601 102.661 314.88C97.2997 322.256 92.9821 330.338 89.8303 338.895C89.776 339.05 89.6888 339.192 89.5747 339.31C111.849 363.259 156.706 368.848 161.711 372.214C166.776 375.621 168.861 396.769 165.164 401.269C163.237 403.635 161.349 406.032 159.499 408.458C157.65 410.422 156.197 412.724 155.218 415.237C154.429 417.741 154.155 420.379 154.413 422.991C154.671 425.603 155.455 428.137 156.717 430.438C159.288 434.278 163.048 437.167 167.421 438.661C168.074 436.76 168.789 434.882 169.566 433.027C170.227 431.431 170.931 429.845 171.659 428.272C171.012 428.104 170.379 427.889 169.763 427.628C169.743 427.772 169.694 427.911 169.617 428.034C169.54 428.157 169.439 428.263 169.318 428.345C169.198 428.427 169.062 428.482 168.919 428.508C168.776 428.533 168.63 428.529 168.488 428.494C167.595 428.259 166.758 427.846 166.027 427.28C165.297 426.714 164.688 426.007 164.237 425.2C163.786 424.394 163.503 423.505 163.403 422.586C163.304 421.667 163.391 420.738 163.659 419.854C164.765 415.09 169.773 412.983 173.789 411.093C180.648 407.958 187.785 405.471 195.107 403.663C197.442 402.988 199.806 402.42 202.192 401.961C202.791 401.829 203.391 401.688 203.99 401.559C209.256 400.394 214.594 399.584 219.969 399.134C225.091 398.454 230.295 398.724 235.319 399.93C238.97 400.842 242.181 403.017 244.383 406.069C245.019 407.143 245.395 408.352 245.481 409.597C245.567 410.843 245.361 412.092 244.879 413.243C243.914 415.49 242.421 417.47 240.528 419.017C239.125 420.347 237.442 421.347 235.602 421.943C236.326 423.036 237.025 424.148 237.71 425.266C265.324 418.267 250.583 384.797 246.849 372.917C242.928 360.487 247.81 360.486 247.81 360.486Z" fill="#4FB3AA"/>
<path d="M236.623 402.925L234.452 419.857C234.536 419.812 234.625 419.778 234.717 419.754C236.521 419.175 238.155 418.163 239.477 416.806C241.145 415.385 242.367 413.512 242.996 411.413C243.962 407.248 240.494 404.496 236.623 402.925ZM169.166 416.205C167.732 417.03 166.633 418.332 166.062 419.884C165.326 422.297 166.037 425.575 168.838 426.156C168.997 426.188 169.147 426.252 169.28 426.343C169.412 426.435 169.525 426.553 169.611 426.69C169.697 426.826 169.754 426.979 169.779 427.139C169.803 427.298 169.795 427.461 169.755 427.618C170.371 427.878 171.004 428.093 171.651 428.261C172.709 425.977 173.839 423.724 175.07 421.538C174.89 421.365 174.768 421.14 174.719 420.895C174.671 420.65 174.699 420.396 174.8 420.167C174.901 419.939 175.069 419.747 175.283 419.617C175.496 419.487 175.744 419.426 175.994 419.442C176.577 419.496 177.159 419.538 177.743 419.586L179.617 411.142C178.05 411.765 176.501 412.43 174.971 413.136C172.957 414.001 171.015 415.028 169.166 416.205Z" fill="#59679C"/>
<path d="M242.411 84.1C229.568 78.1388 214.902 77.4414 201.552 82.157C203.174 92.8188 208.108 102.7 215.657 110.403C223.205 118.105 232.985 123.238 243.612 125.074C252.565 126.569 261.759 125.521 270.146 122.049C269.434 113.792 266.472 105.889 261.582 99.1982C256.692 92.5075 250.061 87.2854 242.411 84.1Z" fill="#FF8684"/>
<path d="M188.193 299.688L188.62 299.367C189.269 298.884 189.946 298.439 190.647 298.035C191.297 297.623 192.011 297.323 192.76 297.145C192.88 294.474 192.812 280.629 178.855 278.822C163.399 276.823 162.177 276.635 158.672 269.324C155.166 262.013 146.059 271.544 149.977 279.501C153.895 287.457 159.332 287.82 159.332 287.82C159.332 287.82 155.901 291.423 159.445 293.593C160.726 294.184 162.124 294.48 163.534 294.459C164.945 294.438 166.333 294.1 167.595 293.471C167.595 293.471 163.76 298.886 166.516 301.299C169.273 303.711 178.127 303.084 180.13 300.639C181.625 298.816 185.733 299.901 187.725 300.569C187.739 300.398 187.788 300.232 187.869 300.08C187.949 299.929 188.059 299.796 188.193 299.688ZM192.121 299.889L191.998 299.957L192.037 299.934L192.121 299.889Z" fill="#C17E48"/>
<path d="M199.992 297.585C198.096 297.811 196.225 298.212 194.404 298.785C194.302 298.996 194.137 299.17 193.932 299.284C193.726 299.397 193.491 299.444 193.258 299.418L193.446 299.421C193.362 299.423 193.277 299.431 193.193 299.443L193.165 299.439C192.98 299.497 192.797 299.565 192.619 299.643C192.43 299.726 192.245 299.817 192.062 299.915L192.035 299.93L191.968 299.968L191.722 300.112C190.975 300.553 190.258 301.045 189.578 301.583C189.428 301.695 189.253 301.769 189.068 301.796C188.882 301.824 188.693 301.804 188.517 301.739C186.198 303.741 184.392 306.269 183.248 309.111C182.105 311.953 181.658 315.028 181.945 318.078C181.942 319.155 182.175 319.782 182.576 320.068C182.673 320.142 182.785 320.195 182.903 320.224L182.922 320.227C185.623 320.818 193.099 311.16 194.739 306.466C195.557 307.452 196.708 308.104 197.974 308.299C199.24 308.494 200.534 308.217 201.611 307.522C202.614 306.886 203.475 306.049 204.138 305.064C204.802 304.078 205.253 302.966 205.465 301.797C205.465 301.797 213.247 310.347 218.958 310.343C219.196 310.343 219.434 310.328 219.671 310.299C218.664 306.051 216.054 302.356 212.387 299.987C208.72 297.618 204.279 296.757 199.992 297.585ZM191.964 299.977L191.991 299.962L191.964 299.977ZM193.239 299.418L193.236 299.418L193.239 299.418Z" fill="#C17E48"/>
<path d="M373.661 72.4879C342.932 58.6123 307.164 74.2607 301.978 108.74C300.975 115.774 301.431 122.939 303.318 129.788C305.205 136.638 308.483 143.026 312.947 148.553C312.056 148.544 311.165 148.557 310.283 148.597C306.957 148.543 303.67 149.313 300.714 150.838C298.715 152.046 296.598 154.963 298.806 157.007C301.001 158.418 303.603 159.056 306.201 158.822C307.522 158.858 308.851 158.845 310.174 158.793C309.72 159.471 309.284 160.161 308.867 160.862C307.426 162.849 306.557 165.192 306.355 167.638C306.367 167.966 306.425 168.29 306.527 168.601C306.656 169.001 306.865 169.37 307.14 169.687C307.416 170.004 307.752 170.262 308.129 170.446C309.204 170.966 310.425 171.1 311.588 170.828C313.333 170.401 314.964 169.599 316.368 168.477C316.769 169.241 317.222 169.976 317.724 170.678C318.919 172.687 320.818 174.18 323.053 174.867C326.059 175.387 328.078 172.007 328.89 169.616C329.679 167.261 329.99 164.771 329.805 162.294C334.304 164.561 339.132 166.108 344.112 166.876C374.973 171.62 396.632 149.08 400.884 124.126C404.23 104.254 396.561 82.8479 373.661 72.4879ZM317.968 163.46C317.811 163.67 317.648 163.875 317.482 164.08C317.477 163.993 317.477 163.907 317.484 163.821C317.492 163.583 317.555 163.351 317.668 163.142C317.888 162.886 318.166 162.687 318.48 162.561L318.582 162.519C318.405 162.853 318.199 163.171 317.966 163.47L317.968 163.46ZM318.759 161.849C318.728 161.86 318.766 161.799 318.767 161.796L318.762 161.827L318.759 161.849ZM324.17 172.404C323.697 172.674 323.376 172.602 322.787 172.31C322.079 171.938 321.44 171.445 320.901 170.853C319.766 169.678 318.85 168.309 318.197 166.811C318.734 166.259 319.235 165.674 319.698 165.06C320.602 163.856 322.244 160.975 320.041 160.041C319.387 159.906 318.71 159.932 318.069 160.117C317.428 160.302 316.841 160.64 316.36 161.103C315.982 161.433 315.676 161.837 315.462 162.292C315.249 162.746 315.132 163.24 315.12 163.742C315.089 164.565 315.192 165.387 315.424 166.177C314.312 167.155 313.018 167.903 311.616 168.377C310.851 168.699 309.99 168.712 309.216 168.41C308.669 168.103 308.675 167.771 308.71 167.23C309.094 165.184 309.931 163.249 311.16 161.57C311.877 160.4 312.654 159.269 313.488 158.18C313.628 157.996 313.712 157.776 313.73 157.545C313.747 157.314 313.697 157.084 313.585 156.881C313.474 156.679 313.305 156.513 313.101 156.404C312.897 156.296 312.666 156.249 312.435 156.269C310.945 156.414 309.439 156.477 307.944 156.493C305.64 156.66 303.325 156.386 301.123 155.687C300.803 155.583 300.513 155.405 300.276 155.167C300.425 155.299 300.148 154.892 300.224 155.066C300.158 154.916 300.181 154.99 300.196 154.874C300.499 153.991 301.123 153.256 301.945 152.815C304.489 151.528 307.309 150.885 310.159 150.941C311.774 150.852 313.393 150.859 315.006 150.964C318.547 154.893 322.677 158.247 327.249 160.907C327.58 162.91 327.548 164.956 327.155 166.948C327.053 168.013 326.737 169.046 326.225 169.986C325.714 170.925 325.017 171.752 324.178 172.415L324.17 172.404Z" fill="#FFD35C"/>
<path d="M195.099 403.655C197.456 403.046 199.818 402.478 202.184 401.953C199.527 402.469 197.17 403.053 195.099 403.655ZM270.644 515.368C269.252 506.47 267.197 497.689 264.497 489.097C261.28 478.242 257.533 467.56 253.255 457.05C249.225 446.849 244.466 436.951 239.014 427.433C238.584 426.703 238.145 425.978 237.698 425.258C237.013 424.139 236.315 423.028 235.591 421.935C235.478 421.965 235.362 421.977 235.246 421.972C235.061 422.176 234.807 422.303 234.532 422.329L234.137 422.367C233.902 422.395 233.666 422.413 233.428 422.44C228.265 422.999 223.071 423.259 217.875 423.362C208.254 423.551 198.639 423.259 189.041 422.714C185.105 422.489 181.167 422.232 177.235 421.89C176.705 421.844 176.174 421.804 175.657 421.756C175.451 421.739 175.254 421.665 175.089 421.541C173.858 423.727 172.729 425.974 171.67 428.264C170.942 429.837 170.225 431.421 169.577 433.019C168.806 434.873 168.091 436.751 167.432 438.653C166.839 440.378 166.305 442.123 165.831 443.884C165.123 446.694 164.598 449.547 164.259 452.426C162.782 463.741 161.817 475.129 160.837 486.495C160.607 489.167 160.384 491.842 160.166 494.52C157.442 494.063 154.714 493.619 151.984 493.188C144.456 491.988 136.918 490.855 129.37 489.788C120.113 488.48 110.846 487.26 101.548 486.265C97.1101 485.784 92.6622 485.35 88.2102 485.004C87.0093 484.912 85.2716 484.402 84.3649 485.35C83.8836 485.861 83.4316 486.399 83.0109 486.961C78.2316 493.354 75.7437 501.17 75.9481 509.149C75.9787 510.624 76.0918 512.097 76.2868 513.559C76.3065 513.747 76.3759 513.927 76.488 514.079C76.6 514.231 76.7507 514.35 76.9243 514.425C78.9285 515.053 80.9456 515.638 82.9627 516.223C87.985 517.677 93.0303 519.058 98.0985 520.366C105.144 522.188 112.221 523.884 119.334 525.409C127.196 527.094 135.102 528.584 143.058 529.741C150.681 530.91 158.369 531.608 166.078 531.831C169.475 531.92 172.874 531.829 176.262 531.559C177.775 531.43 179.286 531.253 180.785 531.007C181.604 530.962 182.409 530.773 183.163 530.449C184.14 529.771 185.012 528.953 185.749 528.02C187.885 525.523 189.753 522.81 191.323 519.924C194.224 514.702 196.707 509.26 198.75 503.646C202.071 494.635 204.864 485.438 207.113 476.101C207.656 473.921 208.168 471.733 208.671 469.54C209.496 470.536 210.294 471.554 211.063 472.594C214.062 476.669 216.678 481.012 218.878 485.568C221.957 491.884 224.162 498.59 225.431 505.501C226.375 510.075 226.888 514.727 226.966 519.396C226.967 520.208 226.862 521.016 226.654 521.801L226.65 521.822C226.554 521.91 226.467 522.015 226.38 522.101L226.311 522.179L226.181 522.294L225.686 522.726C225.266 523.09 224.838 523.44 224.404 523.789C221.736 525.937 218.966 527.96 216.207 529.978C208.591 535.512 200.919 540.967 193.192 546.344C188.32 549.751 183.346 553.025 178.535 556.515C178.459 556.57 178.381 556.623 178.303 556.675C178.113 556.821 177.975 557.024 177.909 557.254C177.842 557.484 177.851 557.73 177.933 557.954C178.446 559.74 179.103 561.481 179.895 563.161C181.614 567.043 183.902 570.647 186.683 573.854C190.085 577.833 194.473 580.85 199.406 582.602C200.154 582.854 200.907 583.242 201.647 582.815C201.738 582.758 201.827 582.696 201.912 582.629C202.344 582.334 202.769 582.025 203.196 581.723C207.55 578.65 211.884 575.543 216.197 572.403C222.998 567.463 229.743 562.447 236.433 557.353C243.226 552.163 249.965 546.884 256.467 541.326C259.15 539.053 261.76 536.695 264.291 534.254C266.1 532.574 267.761 530.741 269.255 528.776C270.343 527.35 271 525.643 271.149 523.855C271.295 521.016 271.126 518.17 270.644 515.368ZM402.627 428.148C397.788 408.305 388.797 389.713 376.249 373.599C363.97 357.089 349.582 342.321 335.773 327.114C321.428 311.322 307.61 294.944 297.875 275.826C297.595 275.275 297.332 274.72 297.059 274.166C296.963 273.796 296.853 273.428 296.763 273.059C296.43 271.793 296.104 270.524 295.748 269.261L294.919 266.333C294.475 266.475 294.027 266.602 293.579 266.728C293.271 266.818 292.969 266.915 292.656 266.995C292.196 267.116 291.732 267.221 291.268 267.329C291.432 267.699 291.585 268.077 291.736 268.446C292.723 270.676 293.769 272.88 294.852 275.064C295.074 275.93 295.283 276.799 295.501 277.667C293.888 274.292 292.416 270.858 291.084 267.364C290.315 267.54 289.544 267.699 288.772 267.84C290.346 272.005 292.113 276.094 294.066 280.094C294.47 280.924 294.887 281.743 295.286 282.562C296.087 284.132 296.913 285.691 297.764 287.24C299.529 295.268 301.005 303.352 302.192 311.492C304.564 327.801 305.774 344.258 305.811 360.739C305.852 377.25 304.695 393.742 302.349 410.086C302.055 412.132 301.741 414.176 301.406 416.217C301.375 416.518 301.462 416.819 301.646 417.057C301.831 417.296 302.101 417.455 302.4 417.501C302.698 417.547 303.003 417.476 303.251 417.304C303.499 417.132 303.672 416.871 303.733 416.575C306.362 400.269 307.82 383.795 308.095 367.28C308.394 350.742 307.509 334.205 305.45 317.793C304.433 309.777 303.139 301.798 301.565 293.855C308.7 305.864 316.923 317.207 324.947 328.65C336 344.418 346.825 360.65 353.374 378.881C360.333 398.336 361.745 419.344 357.453 439.555C356.92 442.046 356.302 444.518 355.6 446.967C355.185 448.422 357.517 448.764 357.927 447.324C363.482 427.711 363.664 406.966 358.452 387.259C353.511 368.635 343.623 351.844 332.897 336.008C322.129 320.114 310.295 304.895 300.935 288.098C300.626 287.546 300.325 286.988 300.024 286.43C299.806 285.437 299.578 284.443 299.348 283.467C302.164 288.438 305.235 293.26 308.548 297.915C314.558 306.194 320.998 314.153 327.843 321.757C341.46 337.168 356.001 351.797 368.867 367.872C381.557 383.719 392.528 401.147 398.329 420.75C399.078 423.282 399.737 425.835 400.307 428.408C400.611 429.884 402.956 429.631 402.627 428.148ZM284.266 234.553C283.874 213.31 293.522 194.253 304.327 176.567C305.582 174.521 306.855 172.479 308.147 170.439C307.77 170.255 307.433 169.997 307.158 169.68C306.883 169.363 306.674 168.994 306.544 168.594C295.529 186.171 284.305 204.708 282.279 225.806C282.161 227.032 282.078 228.256 282.034 229.481C280.798 223.292 279.853 217.053 279.198 210.762C278.033 199.323 277.746 187.811 278.34 176.328C279.521 163.601 279.587 150.796 278.539 138.057C278.179 135.141 277.664 132.246 276.995 129.385C276.295 129.765 275.501 129.936 274.707 129.877C277.092 142.459 277.688 155.315 276.477 168.064C275.671 179.625 275.571 191.224 276.176 202.796C276.623 209.754 277.417 216.686 278.556 223.565L278.32 223.129C271.166 210.198 262.205 198.004 257.818 183.737C257.296 182.058 256.862 180.332 256.494 178.603C256.204 178.835 255.882 179.024 255.538 179.166C255.141 179.329 254.724 179.439 254.298 179.493C257.474 193.711 265.571 205.994 272.898 218.381C275.489 222.737 277.89 227.204 280.093 231.769C280.591 234.158 281.138 236.536 281.733 238.902C281.877 238.863 282.021 238.818 282.167 238.783L283.116 238.558L284.029 238.379L284.458 238.295L284.788 238.23L285.445 238.111C285.078 237.216 284.7 236.325 284.312 235.436C284.294 235.136 284.272 234.845 284.266 234.553Z" fill="#6C458F"/>
<path d="M291.286 267.334L291.114 267.372C292.447 270.864 293.919 274.298 295.531 277.675C295.313 276.807 295.105 275.937 294.883 275.072C293.796 272.889 292.757 270.682 291.766 268.454C291.603 268.08 291.45 267.702 291.286 267.334ZM288.8 267.844C288.583 267.884 288.368 267.931 288.142 267.964C285.977 268.577 283.682 268.566 281.522 267.931C279.488 266.978 280.125 264.375 281.03 262.816C282.155 260.958 283.585 259.303 285.258 257.918C285.01 257.951 284.766 257.999 284.519 258.029C282.039 258.544 279.47 258.429 277.046 257.695C276.548 257.471 276.111 257.128 275.775 256.697C275.439 256.265 275.213 255.759 275.117 255.22C275.021 254.682 275.058 254.128 275.225 253.607C275.391 253.086 275.683 252.614 276.074 252.231C277.349 250.725 278.969 249.548 280.796 248.801C278.355 249.024 275.901 248.557 273.713 247.453C271.343 245.877 272.899 243.408 274.621 242.09C274.131 241.799 273.565 241.661 272.996 241.692C272.427 241.724 271.88 241.924 271.425 242.267C267.835 244.468 269.846 252.534 270.616 268.681C270.197 279.198 267.631 289.518 263.075 299.006C263.82 299.258 264.571 299.492 265.325 299.72C267.594 300.408 269.888 301.017 272.206 301.548C273.781 301.915 275.359 302.254 276.949 302.543C279.769 303.088 282.623 303.438 285.491 303.591C287.473 303.692 289.459 303.613 291.426 303.356C291.542 303.341 291.659 303.343 291.774 303.361C292.335 300.298 293.901 291.608 295.335 282.591C294.921 281.77 294.503 280.951 294.116 280.124C292.154 276.116 290.38 272.018 288.8 267.844ZM230.528 401.371C225.877 401.013 221.201 401.162 216.583 401.817C211.711 402.403 206.876 403.261 202.1 404.386C194.441 406.053 186.924 408.313 179.616 411.145L177.742 419.589C178.689 419.668 179.636 419.749 180.584 419.821C188.567 420.429 196.565 420.826 204.576 421.013C214.477 421.362 224.389 421.026 234.243 420.008C234.303 419.951 234.37 419.903 234.444 419.866L236.616 402.934C234.665 402.144 232.618 401.618 230.528 401.371ZM78.8623 279.838C75.6857 279.349 73.9193 290.838 73.9193 290.838C73.9193 290.838 68.2208 277.45 63.2472 278.064C58.2736 278.677 63.8322 292.165 63.8322 292.165C57.455 283.191 52.6806 283.32 51.243 285.35C49.8054 287.38 57.3797 297.427 57.3797 297.427C57.3797 297.427 50.6745 293.019 47.9597 293.603C45.245 294.186 46.4839 297.504 50.5746 301.01C54.264 304.174 82.3897 332.095 87.8256 337.5C88.7708 334.95 89.8799 332.457 91.0628 330.004L91.193 329.74C93.6864 324.501 96.5981 319.472 99.9 314.701C100.187 314.288 100.471 313.878 100.767 313.469C93.8442 307.958 87.4409 301.825 81.6375 295.145C81.6375 295.145 82.039 280.326 78.8623 279.838ZM194.634 347.655C199.722 350.624 207.371 349.766 212.655 347.797C214.389 347.292 215.908 346.232 216.981 344.779C218.054 343.327 218.621 341.563 218.595 339.758C218.657 339.039 218.69 338.319 218.693 337.598C218.709 337.495 218.692 336.959 218.689 336.271C220.454 334.057 221.659 331.452 222.204 328.674L222.838 324.551C222.838 324.551 229.402 322.743 229.16 318.204C228.918 313.665 222.659 312.888 220.086 316.809C220.111 314.604 219.731 312.413 218.967 310.344C213.254 310.358 205.473 301.798 205.473 301.798C205.262 302.967 204.81 304.08 204.147 305.065C203.484 306.051 202.623 306.888 201.619 307.524C200.543 308.219 199.249 308.495 197.983 308.3C196.717 308.106 195.565 307.453 194.748 306.467C193.108 311.161 185.631 320.819 182.931 320.228L182.912 320.225C182.793 320.196 182.682 320.143 182.584 320.069C181.326 319.502 176.89 317.781 174.898 320.841C172.562 324.424 175.312 329.727 183.28 329.164C184.228 332.356 185.987 335.248 188.385 337.559C188.596 338.391 188.86 339.314 189.107 340.138C189.451 341.272 189.748 342.21 189.863 342.419C190.889 344.605 192.553 346.43 194.634 347.655ZM194.096 323.326C194.309 323.294 194.526 323.319 194.725 323.4C195.212 323.597 195.716 323.752 196.229 323.865C197.621 324.216 199.042 324.442 200.474 324.54C204.844 324.889 209.204 323.748 212.844 321.304C213.494 320.86 214.721 321.177 214.707 322.118C214.681 323.649 214.517 325.174 214.218 326.675C213.85 328.84 213.081 330.917 211.949 332.798C211.843 332.967 211.737 333.137 211.619 333.301C210.875 334.354 209.88 335.206 208.726 335.78C207.571 336.355 206.292 336.634 205.003 336.594C202.272 336.648 199.596 335.82 197.372 334.234C196.872 333.872 196.405 333.466 195.976 333.022C194.93 331.877 194.131 330.529 193.63 329.062C193.129 327.594 192.936 326.039 193.063 324.494L193.066 324.475C193.075 324.416 193.065 324.357 193.071 324.294C193.073 324.162 193.1 324.032 193.153 323.911C193.205 323.791 193.282 323.682 193.378 323.591C193.473 323.501 193.586 323.431 193.71 323.385C193.833 323.34 193.965 323.32 194.096 323.326Z" fill="#FFE497"/>
<path d="M212.36 322.243C212.38 322.118 212.362 322.023 212.36 322.243V322.243ZM282.526 265.812C282.522 265.981 282.566 265.818 282.526 265.812V265.812ZM274.823 245.306L274.815 245.317L274.823 245.306ZM274.84 245.343L274.797 245.314L274.84 245.346L274.84 245.343ZM274.842 245.35L274.843 245.347L274.842 245.35ZM274.821 245.385L274.827 245.344L274.821 245.385Z" fill="#FFE497"/>
<path d="M274.843 245.343L274.841 245.337L274.84 245.343L274.842 245.346L274.843 245.343Z" fill="#FFE497"/>
<path d="M274.85 245.322C274.857 245.275 274.857 245.279 274.85 245.322C274.843 245.366 274.885 245.366 274.847 245.341C274.924 245.395 274.997 245.455 275.066 245.519C275.416 245.709 275.79 245.85 276.178 245.939C277.82 246.311 279.5 246.482 281.183 246.45C281.788 246.45 282.391 246.437 282.99 246.408L283.723 246.38L283.961 246.371C284.421 246.356 284.879 246.327 285.34 246.302L286.046 246.267L286.152 246.261C286.944 246.21 287.737 246.146 288.526 246.066L288.682 246.052C288.953 246.024 289.226 246.092 289.452 246.246C289.678 246.399 289.843 246.627 289.917 246.89C289.992 247.153 289.971 247.434 289.858 247.683C289.746 247.932 289.549 248.133 289.303 248.251C289.196 248.313 289.081 248.36 288.962 248.39L288.849 248.418L288.729 248.451C288.309 248.562 287.888 248.676 287.469 248.8C287.312 248.847 287.156 248.903 286.999 248.949L286.98 248.946C286.612 249.055 286.245 249.172 285.878 249.291C285.511 249.411 285.118 249.558 284.742 249.695C284.44 249.806 284.14 249.907 283.841 250.024L283.66 250.098C281.364 250.744 279.311 252.056 277.76 253.869C277.546 254.194 277.419 254.568 277.391 254.957C277.424 254.744 277.501 255.22 277.385 254.994C277.502 255.255 277.331 255.056 277.54 255.258C277.367 255.091 277.706 255.341 277.715 255.365C277.882 255.456 278.056 255.532 278.237 255.592C278.601 255.693 278.973 255.764 279.349 255.804C281.206 255.993 283.08 255.936 284.922 255.635C285.485 255.553 286.045 255.458 286.603 255.35C286.804 255.314 287.007 255.278 287.206 255.235C287.793 255.117 288.366 254.988 288.936 254.861L288.973 254.867L289.789 254.673C290.951 254.394 291.551 256.171 290.624 256.793C290.35 256.972 290.093 257.172 289.827 257.361L289.791 257.384C289.231 257.787 288.681 258.202 288.141 258.634L287.864 258.856C287.689 258.999 287.504 259.121 287.339 259.278C286.97 259.595 286.578 259.922 286.2 260.257C285.036 261.25 284.024 262.409 283.197 263.696C282.822 264.294 282.589 264.97 282.516 265.673L282.505 265.741C282.686 265.769 282.906 265.899 283.185 265.935C284.788 266.082 286.403 265.971 287.971 265.606C288.508 265.5 289.037 265.387 289.553 265.28C289.79 265.231 290.026 265.174 290.264 265.121L290.324 265.108C290.885 264.981 291.439 264.845 291.986 264.699C292.199 264.642 292.415 264.592 292.625 264.532C293.541 264.277 294.447 263.989 295.342 263.667C295.582 263.582 295.824 263.501 296.062 263.41C296.348 263.315 296.66 263.333 296.933 263.46C297.206 263.588 297.42 263.815 297.531 264.095C297.642 264.375 297.641 264.687 297.529 264.967C297.417 265.247 297.202 265.473 296.928 265.599C296.265 265.855 295.589 266.09 294.901 266.307L295.729 269.236C296.076 270.498 296.402 271.766 296.744 273.034C297.432 268.669 297.883 264.27 298.095 259.857C298.526 258.825 298.783 257.729 298.856 256.614C299.246 250.71 299.109 242.491 295.684 240.289C295.673 240.466 295.617 240.637 295.52 240.787C295.424 240.936 295.291 241.058 295.135 241.141C294.978 241.224 294.802 241.266 294.625 241.262C294.448 241.259 294.274 241.21 294.121 241.12C291.681 240.005 288.943 239.716 286.324 240.298C285.735 240.387 285.159 240.493 284.605 240.603L284.555 240.615L284.093 240.71L283.941 240.744C283.405 240.86 282.86 240.994 282.314 241.133L282.257 241.15C280.091 241.671 278.036 242.574 276.188 243.817C276.08 243.894 275.967 243.966 275.862 244.045C275.512 244.291 275.207 244.596 274.962 244.946C274.918 245.058 274.866 245.167 274.807 245.271C274.917 245.134 274.882 245.241 274.85 245.322Z" fill="#FFE497"/>
<path d="M190.157 608.78C190.286 598.816 188.102 588.959 183.777 579.982C180.541 573.465 176.179 567.571 170.892 562.573C170.744 562.447 170.563 562.365 170.371 562.335C170.178 562.306 169.981 562.33 169.802 562.405L154.204 570.856L151.993 572.054C151.901 572.104 151.817 572.166 151.743 572.239C151.551 572.37 151.411 572.564 151.345 572.787C151.279 573.01 151.292 573.249 151.383 573.463C153.001 577.55 154.86 581.538 156.952 585.405C161.444 594.117 166.911 602.291 173.247 609.771C177.327 614.58 181.94 618.912 186.996 622.682C187.147 622.799 187.326 622.874 187.514 622.901C187.703 622.928 187.895 622.906 188.073 622.837C188.251 622.768 188.407 622.654 188.528 622.506C188.649 622.358 188.729 622.182 188.761 621.994C189.763 617.663 190.231 613.225 190.157 608.78ZM71.8921 482.748C71.1491 482.288 70.3074 482.01 69.4362 481.939L58.7036 480.206C56.9482 479.936 55.1987 479.648 53.4462 479.359C52.2998 479.183 51.0374 478.867 50.4159 480.143C44.795 492.139 41.4117 505.061 40.4322 518.272C39.8509 524.553 39.982 530.879 40.823 537.13C40.8451 537.319 40.9156 537.499 41.0275 537.652C41.1395 537.806 41.2892 537.928 41.4622 538.007C41.6352 538.086 41.8256 538.119 42.0151 538.103C42.2046 538.087 42.3867 538.023 42.5439 537.916C46.3456 535.597 49.8497 532.822 52.9781 529.653C60.1869 522.775 65.7036 514.321 69.0953 504.953C70.415 501.191 71.358 497.308 71.9104 493.36C72.1896 491.35 72.3742 489.331 72.4644 487.303C72.5301 485.836 73.324 483.812 71.8921 482.748ZM211.445 459.485C211.564 457.985 209.239 457.614 209.118 459.127C208.39 466.337 206.99 473.463 204.934 480.412C203.005 487.461 200.805 494.434 198.338 501.313C197.822 502.73 199.966 503.699 200.488 502.283C204.218 492.186 207.257 481.846 209.581 471.336C210.467 467.432 211.09 463.473 211.445 459.485ZM189.441 421.234C187.695 426.763 184.255 431.603 179.608 435.07C176.985 436.898 173.953 438.053 170.778 438.432C170.326 438.484 169.873 438.517 169.415 438.542L169.152 438.546C167.685 438.503 167.33 440.789 168.83 440.873C170.885 440.924 172.934 440.617 174.885 439.965C179.262 438.563 183.135 435.91 186.024 432.335C188.45 429.306 190.333 425.879 191.591 422.208C192.098 420.78 189.952 419.807 189.441 421.234ZM75.8649 303.182C75.1939 302.433 74.7157 301.532 74.4716 300.557L74.3656 300.185L74.3195 299.987C74.2573 299.699 74.2026 299.41 74.1553 299.12C74.0221 298.187 73.9531 297.246 73.9489 296.304L73.9496 296.112L73.9543 295.914C73.9593 295.735 73.9677 295.557 73.9793 295.378C73.9961 295.039 74.0257 294.702 74.0678 294.365C74.0982 294.065 74.0121 293.764 73.8272 293.525C73.6423 293.286 73.3727 293.127 73.0742 293.081C72.7756 293.036 72.4708 293.106 72.2227 293.278C71.9746 293.451 71.8021 293.712 71.7408 294.007C71.5773 295.339 71.5505 296.684 71.6609 298.021C71.7069 300.396 72.5163 302.693 73.9693 304.572C74.1582 304.817 74.4343 304.98 74.7403 305.027C75.0462 305.074 75.3585 305.002 75.6123 304.825C75.8623 304.639 76.029 304.363 76.0763 304.055C76.1236 303.748 76.0476 303.434 75.8649 303.182ZM211.454 316.511L211.564 316.442L211.454 316.511ZM212.089 316.228L211.951 316.274C211.951 316.274 211.989 316.28 212.103 316.224L212.089 316.228Z" fill="black"/>
<path d="M215.032 314.513C214.23 314.061 213.323 313.828 212.402 313.84C211.635 313.872 210.888 314.101 210.235 314.504C209.24 315.14 208.425 316.02 207.866 317.059C207.748 317.25 207.642 317.447 207.548 317.65C207.419 317.935 207.409 318.26 207.52 318.552C207.63 318.845 207.853 319.081 208.138 319.21C208.423 319.339 208.747 319.349 209.04 319.238C209.332 319.127 209.569 318.905 209.698 318.62C209.763 318.472 209.837 318.327 209.918 318.187L210.006 318.028L210.039 317.979C210.159 317.795 210.288 317.618 210.425 317.447C210.568 317.269 210.72 317.1 210.88 316.938L210.999 316.835C211.098 316.751 211.203 316.671 211.31 316.595C211.357 316.56 211.406 316.533 211.456 316.502C211.487 316.487 211.518 316.475 211.551 316.465L211.625 316.419L211.562 316.457L211.781 316.36C211.836 316.338 211.893 316.319 211.95 316.303C211.994 316.273 212.04 316.248 212.089 316.228L212.15 316.206L212.103 316.224L212.348 316.188C212.425 316.18 212.503 316.175 212.581 316.173C212.754 316.188 212.926 316.215 213.096 316.252L213.202 316.268C213.277 316.28 213.351 316.32 213.423 316.35C213.641 316.436 213.854 316.537 214.058 316.653C214.199 316.718 214.352 316.755 214.508 316.761C214.664 316.768 214.819 316.743 214.966 316.689C215.112 316.634 215.246 316.552 215.36 316.446C215.474 316.339 215.566 316.212 215.631 316.07C215.75 315.783 215.755 315.461 215.644 315.171C215.532 314.882 215.313 314.646 215.032 314.513ZM191.954 319.128C191.977 319.103 192.136 318.945 192.152 318.922L192.369 318.738C192.442 318.678 192.557 318.597 192.653 318.532L192.797 318.445L192.676 318.51C192.849 318.399 193.041 318.32 193.242 318.277L193.28 318.283L193.489 318.251C193.581 318.24 193.671 318.234 193.764 318.229L193.786 318.233C193.942 318.257 194.101 318.265 194.248 318.304C194.327 318.316 194.402 318.327 194.474 318.358L194.514 318.364C194.666 318.417 194.814 318.477 194.96 318.544C195.1 318.611 195.236 318.68 195.371 318.758L195.396 318.762C195.436 318.794 195.498 318.825 195.536 318.85C195.748 318.992 195.952 319.145 196.147 319.309C196.26 319.403 196.369 319.503 196.475 319.606C196.393 319.519 196.458 319.571 196.513 319.611C196.702 319.856 196.978 320.018 197.284 320.065C197.589 320.112 197.902 320.04 198.156 319.864C198.405 319.677 198.572 319.4 198.619 319.093C198.666 318.785 198.591 318.471 198.409 318.218C197.75 317.387 196.886 316.743 195.901 316.35C194.917 315.956 193.847 315.826 192.797 315.974C191.751 316.247 190.814 316.832 190.109 317.652C189.915 317.895 189.824 318.206 189.857 318.516C189.889 318.826 190.042 319.111 190.283 319.309C190.53 319.503 190.843 319.593 191.155 319.56C191.468 319.526 191.754 319.371 191.954 319.128Z" fill="black"/>
<path d="M196.573 319.653L196.495 319.583L196.687 319.769L196.573 319.653ZM204.699 341.608C200.528 341.953 196.338 341.25 192.508 339.562C192.08 339.356 191.675 339.105 191.3 338.813C190.989 338.578 190.692 338.324 190.413 338.053L190.28 337.898L190.103 337.676C190.007 337.553 189.815 337.178 190.103 337.676C189.98 337.392 189.753 337.166 189.469 337.043C189.185 336.921 188.865 336.911 188.574 337.016C188.285 337.132 188.054 337.357 187.93 337.643C187.807 337.929 187.801 338.252 187.914 338.542C188.416 339.41 189.11 340.151 189.944 340.708C192.153 342.182 194.667 343.136 197.297 343.498C199.84 343.895 202.416 344.04 204.987 343.933C206.482 343.903 206.205 341.565 204.699 341.608ZM343.622 100.604C344.415 100.916 345.284 100.973 346.111 100.769C346.938 100.564 347.68 100.108 348.236 99.4629C348.792 98.8179 349.134 98.016 349.215 97.1683C349.295 96.3205 349.11 95.4688 348.685 94.7308C348.26 93.9928 347.616 93.4051 346.843 93.0489C346.069 92.6927 345.204 92.5857 344.367 92.7426C343.53 92.8996 342.763 93.3127 342.171 93.9249C341.579 94.5371 341.192 95.3181 341.063 96.1599C340.826 97.0881 340.96 98.0725 341.438 98.9028C341.916 99.7332 342.7 100.344 343.622 100.604Z" fill="black"/>
<path d="M374.723 119.945C376.852 119.343 378.188 117.474 377.707 115.771C377.226 114.068 375.109 113.175 372.979 113.777C370.85 114.379 369.513 116.248 369.995 117.951C370.476 119.654 372.593 120.547 374.723 119.945Z" fill="black"/>
<path d="M367.839 128.826C366.186 129.917 364.392 130.779 362.506 131.386C359.429 132.566 356.104 132.95 352.839 132.503C349.574 132.055 346.475 130.79 343.829 128.825C341.184 126.86 339.077 124.259 337.705 121.262C336.333 118.266 335.74 114.972 335.981 111.685C336.102 110.38 336.339 109.089 336.69 107.826C336.834 107.35 337.003 106.882 337.196 106.424C337.31 106.142 337.309 105.827 337.196 105.545C337.083 105.262 336.865 105.035 336.588 104.91C336.31 104.785 335.996 104.772 335.709 104.873C335.423 104.974 335.186 105.183 335.05 105.454C333.988 108.045 333.472 110.826 333.532 113.626C333.591 116.425 334.226 119.182 335.397 121.725C337.805 126.871 341.974 130.987 347.151 133.329C351.733 135.231 356.828 135.509 361.59 134.116C364.311 133.421 366.895 132.273 369.233 130.719C370.47 129.87 369.076 127.958 367.839 128.826ZM235.311 399.923C230.286 398.717 225.083 398.447 219.961 399.126C214.586 399.576 209.248 400.386 203.981 401.552C203.383 401.68 202.783 401.821 202.184 401.953C199.819 402.481 197.458 403.048 195.099 403.655C187.777 405.463 180.64 407.951 173.781 411.086C169.765 412.975 164.757 415.083 163.65 419.846C163.382 420.731 163.296 421.66 163.395 422.579C163.494 423.497 163.778 424.386 164.229 425.193C164.68 425.999 165.289 426.707 166.019 427.273C166.749 427.839 167.586 428.251 168.48 428.486C168.621 428.521 168.768 428.526 168.911 428.5C169.054 428.474 169.19 428.419 169.31 428.337C169.43 428.256 169.532 428.15 169.609 428.026C169.685 427.903 169.735 427.765 169.755 427.621C169.795 427.465 169.803 427.302 169.778 427.142C169.753 426.983 169.696 426.83 169.611 426.693C169.525 426.556 169.412 426.438 169.279 426.347C169.146 426.255 168.996 426.191 168.838 426.159C166.049 425.58 165.326 422.3 166.061 419.888C166.633 418.335 167.732 417.033 169.166 416.208C171.015 415.026 172.957 413.996 174.973 413.127C176.5 412.402 178.06 411.763 179.618 411.133C186.926 408.3 194.444 406.041 202.102 404.374C206.878 403.249 211.713 402.391 216.585 401.805C221.204 401.15 225.88 401 230.53 401.359C232.622 401.603 234.672 402.125 236.626 402.913C240.496 404.483 243.954 407.237 242.995 411.393C242.367 413.493 241.145 415.365 239.477 416.787C238.155 418.144 236.521 419.156 234.717 419.735C234.625 419.758 234.536 419.793 234.452 419.838C234.378 419.875 234.31 419.923 234.251 419.98C224.397 420.998 214.484 421.334 204.584 420.986C196.578 420.82 188.58 420.423 180.592 419.794C179.644 419.722 178.697 419.64 177.75 419.562C177.166 419.513 176.584 419.472 176.001 419.417C175.751 419.402 175.503 419.463 175.29 419.592C175.076 419.722 174.908 419.914 174.807 420.143C174.706 420.372 174.678 420.626 174.727 420.871C174.775 421.116 174.897 421.34 175.077 421.514C175.243 421.637 175.439 421.712 175.645 421.729C176.175 421.778 176.706 421.818 177.223 421.863C181.155 422.205 185.093 422.462 189.029 422.687C198.627 423.232 208.251 423.525 217.863 423.334C223.059 423.255 228.248 422.948 233.416 422.413C233.654 422.385 233.89 422.367 234.125 422.34L234.521 422.301C234.795 422.276 235.049 422.148 235.234 421.944C235.35 421.95 235.466 421.937 235.579 421.908C237.418 421.312 239.101 420.312 240.505 418.982C242.398 417.435 243.89 415.454 244.856 413.208C245.338 412.056 245.544 410.807 245.458 409.562C245.372 408.316 244.996 407.108 244.36 406.033C242.157 402.995 238.952 400.831 235.311 399.923ZM100.825 313.389L100.767 313.476C100.47 313.884 100.187 314.294 99.8992 314.708C96.5974 319.478 93.6857 324.507 91.1923 329.746L91.0621 330.011C89.8699 332.459 88.7897 334.96 87.8249 337.506L87.6609 337.929C87.5709 338.177 87.5642 338.448 87.6417 338.701C87.7192 338.954 87.8767 339.175 88.0904 339.33C88.3042 339.486 88.5627 339.567 88.827 339.563C89.0914 339.559 89.3472 339.469 89.556 339.307C89.6701 339.189 89.7573 339.048 89.8116 338.892C92.9634 330.335 97.281 322.254 102.642 314.877C103.529 313.641 101.713 312.163 100.825 313.389ZM291.768 303.338C291.653 303.32 291.536 303.318 291.421 303.332C289.453 303.59 287.467 303.668 285.485 303.568C282.617 303.415 279.763 303.064 276.943 302.52C275.354 302.227 273.773 301.895 272.201 301.525C269.889 300.991 267.595 300.381 265.32 299.697C264.566 299.471 263.816 299.233 263.07 298.983L263.023 298.976C261.598 298.488 260.626 300.634 262.053 301.123L262.142 301.152C268.981 303.542 276.085 305.093 283.298 305.773C285.878 306.018 288.475 306.008 291.053 305.744C291.262 305.719 291.474 305.71 291.702 305.681C291.981 305.643 292.237 305.506 292.424 305.297C292.612 305.088 292.72 304.819 292.727 304.537C292.735 304.256 292.643 303.982 292.468 303.762C292.292 303.542 292.044 303.392 291.768 303.338ZM193.063 324.494C192.936 326.04 193.129 327.595 193.63 329.062C194.131 330.529 194.93 331.877 195.976 333.022C196.405 333.466 196.872 333.872 197.372 334.234C199.596 335.82 202.272 336.648 205.003 336.594C206.292 336.634 207.571 336.355 208.726 335.78C209.881 335.206 210.875 334.354 211.62 333.301C211.738 333.137 211.844 332.968 211.949 332.798C213.081 330.917 213.85 328.84 214.218 326.676C214.515 325.174 214.677 323.648 214.701 322.117C214.717 321.16 213.488 320.859 212.838 321.303C209.198 323.747 204.838 324.888 200.468 324.539C199.036 324.441 197.615 324.215 196.223 323.864C195.71 323.751 195.206 323.596 194.719 323.399C194.52 323.319 194.303 323.293 194.09 323.325C193.959 323.318 193.827 323.338 193.703 323.383C193.579 323.429 193.466 323.499 193.37 323.589C193.274 323.68 193.197 323.789 193.144 323.91C193.091 324.03 193.063 324.161 193.062 324.293C193.053 324.355 193.044 324.411 193.057 324.474L193.063 324.494ZM212.361 322.243C212.362 322.023 212.38 322.118 212.361 322.243V322.243ZM212.162 324.428C212.131 324.631 212.128 324.839 212.094 325.057C211.859 326.947 211.334 328.789 210.538 330.519C210.074 331.526 209.399 332.421 208.558 333.144C207.985 333.624 207.304 333.958 206.573 334.117C204.934 334.434 203.242 334.331 201.654 333.818C200.597 333.501 199.604 333.003 198.718 332.347C197.757 331.602 196.965 330.661 196.396 329.586C195.826 328.512 195.491 327.329 195.414 326.115C201.008 327.699 206.996 327.096 212.162 324.428ZM188.528 301.735C188.703 301.799 188.892 301.819 189.078 301.792C189.263 301.764 189.438 301.691 189.588 301.578L190.669 300.785C191.029 300.521 191.379 300.322 191.732 300.108L191.978 299.963L192.006 299.948L192.128 299.881L192.038 299.931L192.065 299.916C192.247 299.819 192.433 299.726 192.622 299.643C192.8 299.566 192.983 299.497 193.168 299.439L193.196 299.444C193.28 299.431 193.364 299.424 193.449 299.422L193.261 299.419C193.494 299.444 193.729 299.397 193.934 299.284C194.14 299.171 194.305 298.997 194.407 298.786C194.468 298.677 194.508 298.557 194.525 298.433C194.569 298.125 194.491 297.813 194.307 297.562C194.123 297.312 193.848 297.143 193.542 297.092C193.281 297.082 193.02 297.099 192.763 297.145C192.014 297.323 191.3 297.624 190.65 298.036C189.949 298.44 189.272 298.885 188.623 299.367L188.196 299.689C188.064 299.798 187.955 299.933 187.876 300.086C187.798 300.239 187.751 300.406 187.74 300.578C187.712 300.842 187.786 301.107 187.946 301.319C188.098 301.509 188.299 301.652 188.528 301.735Z" fill="black"/>
<path d="M191.963 299.977L192.03 299.939L191.991 299.962L191.963 299.977ZM273.714 247.447C275.902 248.551 278.356 249.018 280.797 248.795C278.97 249.542 277.35 250.718 276.075 252.225C275.684 252.608 275.393 253.08 275.226 253.601C275.059 254.122 275.022 254.676 275.118 255.214C275.214 255.752 275.44 256.259 275.776 256.691C276.112 257.122 276.549 257.465 277.047 257.689C279.471 258.423 282.04 258.538 284.52 258.022C284.767 257.993 285.011 257.944 285.259 257.912C283.586 259.297 282.156 260.952 281.031 262.81C280.151 264.372 279.503 266.965 281.523 267.924C283.683 268.56 285.978 268.571 288.143 267.957C288.356 267.923 288.571 267.876 288.801 267.838C289.573 267.699 290.343 267.54 291.112 267.362L291.284 267.325C291.749 267.217 292.212 267.112 292.672 266.991C292.985 266.911 293.288 266.814 293.596 266.724C294.047 266.598 294.495 266.472 294.936 266.329C295.608 266.112 296.284 265.874 296.963 265.62C297.237 265.494 297.452 265.268 297.564 264.988C297.676 264.709 297.677 264.397 297.566 264.116C297.455 263.836 297.241 263.609 296.968 263.482C296.695 263.354 296.383 263.336 296.097 263.431C295.859 263.523 295.617 263.604 295.377 263.688C294.485 264.018 293.579 264.307 292.66 264.553C292.45 264.613 292.234 264.663 292.021 264.72C291.463 264.864 290.909 265.001 290.359 265.13L290.299 265.143C290.061 265.196 289.825 265.252 289.587 265.302C289.072 265.408 288.543 265.522 288.006 265.628C286.438 265.992 284.823 266.103 283.22 265.957C282.942 265.914 282.723 265.781 282.54 265.763L282.55 265.694C282.624 264.992 282.857 264.316 283.232 263.717C284.059 262.43 285.071 261.271 286.235 260.278C286.607 259.942 286.977 259.612 287.374 259.299C287.543 259.155 287.734 259.035 287.899 258.878L288.176 258.655C288.716 258.223 289.266 257.809 289.826 257.406L289.862 257.383C290.128 257.193 290.385 256.993 290.659 256.814C291.586 256.193 290.986 254.416 289.824 254.694L289.008 254.888L288.97 254.883C288.4 255.015 287.827 255.145 287.241 255.256C287.042 255.299 286.839 255.335 286.638 255.371C286.082 255.478 285.522 255.573 284.957 255.656C283.115 255.957 281.241 256.014 279.383 255.826C279.008 255.785 278.636 255.714 278.271 255.613C278.091 255.554 277.916 255.478 277.75 255.386C277.753 255.364 277.402 255.112 277.575 255.279C277.366 255.078 277.537 255.273 277.42 255.016C277.52 255.239 277.434 254.762 277.426 254.978C277.454 254.59 277.581 254.215 277.795 253.89C279.345 252.078 281.399 250.765 283.695 250.119L283.876 250.045C284.175 249.928 284.477 249.818 284.777 249.717C285.153 249.579 285.532 249.44 285.913 249.313C286.294 249.186 286.646 249.077 287.015 248.967L287.034 248.97C287.191 248.924 287.347 248.868 287.504 248.822C287.923 248.698 288.343 248.583 288.763 248.472L288.884 248.439L288.996 248.412C289.116 248.381 289.231 248.334 289.338 248.272C289.584 248.154 289.781 247.953 289.893 247.704C290.005 247.455 290.026 247.174 289.952 246.912C289.878 246.649 289.713 246.42 289.487 246.267C289.261 246.114 288.988 246.045 288.717 246.073L288.561 246.088C287.772 246.168 286.978 246.231 286.187 246.282L286.081 246.288L285.375 246.324C284.914 246.349 284.456 246.377 283.996 246.393L283.758 246.401L283.025 246.429L281.218 246.471C279.535 246.503 277.855 246.332 276.213 245.96C275.825 245.872 275.451 245.73 275.101 245.54C275.032 245.476 274.959 245.417 274.882 245.362C274.923 245.388 274.919 245.368 274.885 245.344C274.85 245.319 274.893 245.287 274.885 245.344C274.917 245.262 274.952 245.156 274.86 245.321C274.919 245.216 274.971 245.108 275.015 244.996C275.26 244.646 275.564 244.341 275.915 244.095C276.02 244.015 276.133 243.943 276.241 243.867C278.089 242.624 280.144 241.721 282.31 241.2L282.367 241.183C282.913 241.04 283.458 240.907 283.994 240.794L284.146 240.76L284.608 240.664L284.658 240.653C285.212 240.543 285.788 240.437 286.377 240.348C288.996 239.766 291.734 240.054 294.174 241.17C294.327 241.259 294.501 241.308 294.678 241.312C294.855 241.316 295.031 241.274 295.188 241.191C295.344 241.107 295.477 240.985 295.573 240.836C295.669 240.687 295.726 240.516 295.737 240.339C295.793 240.084 295.765 239.818 295.656 239.581C295.548 239.343 295.366 239.147 295.137 239.022C292.1 237.671 288.703 237.356 285.469 238.124C285.248 238.157 285.029 238.197 284.811 238.243C284.699 238.261 284.587 238.286 284.481 238.308L284.053 238.392L283.139 238.571C282.824 238.644 282.506 238.717 282.19 238.796C282.044 238.831 281.9 238.876 281.756 238.915C279.329 239.516 277.021 240.527 274.934 241.904C274.848 241.966 274.763 242.029 274.681 242.096C272.9 243.405 271.344 245.871 273.714 247.447ZM282.526 265.812C282.567 265.818 282.522 265.981 282.526 265.812V265.812ZM274.841 245.337L274.835 245.378L274.841 245.337L274.798 245.305L274.841 245.337Z" fill="black"/>
<path d="M274.861 245.372L274.84 245.343L274.836 245.368L274.861 245.372Z" fill="black"/>
<path d="M265.064 50.8671C255.186 51.6664 249.723 67.4626 249.723 67.4626C249.723 67.4626 233.371 49.7257 223.205 67.3311C213.039 84.9365 258.231 101.384 258.231 101.384C290.338 66.2252 274.943 50.0677 265.064 50.8671Z" fill="#F76559"/>
</svg>
