<svg width="17" height="16" viewBox="0 0 17 16" fill="none" xmlns="http://www.w3.org/2000/svg">
<g clip-path="url(#clip0_655_944)">
<path d="M10.5231 3.66682C10.5504 3.66691 10.5773 3.66025 10.6015 3.64744C10.6256 3.63463 10.6462 3.61605 10.6614 3.59336C10.6767 3.57068 10.6861 3.54458 10.6888 3.51738C10.6915 3.49019 10.6875 3.46275 10.6771 3.43749C10.2107 2.15637 9.35426 1.05375 8.2284 0.28482C8.20184 0.268131 8.1711 0.259277 8.13973 0.259277C8.10836 0.259277 8.07763 0.268131 8.05107 0.28482C6.92521 1.05375 6.06881 2.15637 5.6024 3.43749C5.59197 3.46275 5.58795 3.49019 5.59067 3.51738C5.5934 3.54458 5.6028 3.57068 5.61803 3.59336C5.63327 3.61605 5.65387 3.63463 5.67801 3.64744C5.70214 3.66025 5.72907 3.66691 5.7564 3.66682H10.5231Z" fill="white"/>
<path d="M12.4503 7.33917C12.4518 7.38233 12.4701 7.42319 12.5012 7.45316C12.5323 7.48313 12.5738 7.49987 12.617 7.49984H15.9356C15.9587 7.4999 15.9815 7.49513 16.0027 7.48582C16.0238 7.47652 16.0427 7.4629 16.0583 7.44584C16.0738 7.42882 16.0857 7.4088 16.0931 7.38701C16.1006 7.36522 16.1035 7.34213 16.1016 7.31917C16.0279 6.43756 15.807 5.57452 15.4483 4.76584C15.4352 4.73625 15.4138 4.71111 15.3867 4.69347C15.3596 4.67583 15.328 4.66646 15.2956 4.6665H12.3223C12.2976 4.6666 12.2733 4.67216 12.251 4.6828C12.2288 4.69343 12.2092 4.70887 12.1936 4.72801C12.1781 4.74714 12.1669 4.76948 12.1611 4.79343C12.1552 4.81738 12.1547 4.84234 12.1596 4.8665C12.327 5.6809 12.4243 6.50815 12.4503 7.33917Z" fill="white"/>
<path d="M11.2835 7.49984C11.3061 7.49974 11.3283 7.49514 11.349 7.48633C11.3698 7.47751 11.3885 7.46466 11.4042 7.44851C11.4197 7.43221 11.4318 7.41294 11.4397 7.39186C11.4476 7.37078 11.4512 7.34833 11.4502 7.32584C11.4206 6.47225 11.3068 5.62368 11.1102 4.79251C11.1014 4.75644 11.0807 4.72439 11.0514 4.70153C11.0221 4.67868 10.986 4.66634 10.9489 4.66651H5.33154C5.29426 4.66653 5.25807 4.6791 5.2288 4.7022C5.19953 4.7253 5.1789 4.75758 5.17021 4.79384C4.97366 5.62501 4.85977 6.47359 4.83021 7.32717C4.82931 7.34965 4.83296 7.37207 4.84092 7.3931C4.84889 7.41414 4.86101 7.43335 4.87657 7.44959C4.89213 7.46583 4.9108 7.47877 4.93147 7.48763C4.95214 7.4965 4.97439 7.5011 4.99688 7.50117L11.2835 7.49984Z" fill="white"/>
<path d="M5.7564 12.3335C5.72907 12.3334 5.70214 12.3401 5.67801 12.3529C5.65387 12.3657 5.63327 12.3843 5.61803 12.407C5.6028 12.4296 5.5934 12.4557 5.59067 12.4829C5.58795 12.5101 5.59197 12.5376 5.6024 12.5628C6.06899 13.844 6.92563 14.9467 8.05173 15.7155C8.0782 15.7321 8.10881 15.741 8.14007 15.741C8.17132 15.741 8.20194 15.7321 8.2284 15.7155C9.35463 14.9468 10.2113 13.8441 10.6777 12.5628C10.688 12.5375 10.6919 12.5101 10.6891 12.4829C10.6862 12.4557 10.6768 12.4296 10.6615 12.407C10.6462 12.3843 10.6256 12.3658 10.6014 12.353C10.5773 12.3401 10.5504 12.3335 10.5231 12.3335H5.7564Z" fill="white"/>
<path d="M4.99685 8.49987C4.97442 8.49994 4.95223 8.50453 4.93161 8.51335C4.91098 8.52217 4.89234 8.53505 4.87679 8.55122C4.86124 8.56739 4.84911 8.58652 4.8411 8.60748C4.83309 8.62843 4.82938 8.65078 4.83019 8.6732C4.85975 9.52679 4.97364 10.3754 5.17019 11.2065C5.179 11.2427 5.19969 11.2748 5.22895 11.2978C5.2582 11.3207 5.29432 11.3332 5.33152 11.3332H10.9489C10.9862 11.3331 11.0224 11.3205 11.0518 11.2974C11.0811 11.2744 11.1019 11.2421 11.1109 11.2059C11.3068 10.3746 11.4205 9.52607 11.4502 8.67253C11.4511 8.65006 11.4474 8.62764 11.4395 8.60661C11.4315 8.58557 11.4194 8.56636 11.4038 8.55012C11.3883 8.53388 11.3696 8.52094 11.3489 8.51207C11.3283 8.50321 11.306 8.49861 11.2835 8.49854L4.99685 8.49987Z" fill="white"/>
<path d="M0.178812 7.31918C0.176875 7.34216 0.179727 7.36529 0.187189 7.38711C0.194651 7.40893 0.20656 7.42896 0.222162 7.44594C0.237764 7.46292 0.256721 7.47648 0.277832 7.48576C0.298944 7.49504 0.321751 7.49983 0.344812 7.49984H3.66348C3.7066 7.50004 3.74811 7.48346 3.77921 7.4536C3.81032 7.42373 3.82859 7.38294 3.83014 7.33984C3.85613 6.5086 3.95337 5.68113 4.12081 4.86651C4.12616 4.84228 4.12594 4.81715 4.12016 4.79301C4.11439 4.76888 4.10321 4.74637 4.08748 4.72718C4.07183 4.70804 4.05208 4.69265 4.0297 4.68215C4.00732 4.67165 3.98287 4.66631 3.95815 4.66651H0.984812C0.952471 4.66647 0.920817 4.67584 0.893709 4.69348C0.866601 4.71111 0.845211 4.73626 0.832145 4.76584C0.473382 5.57452 0.252551 6.43757 0.178812 7.31918Z" fill="white"/>
<path d="M3.8301 8.66067C3.82854 8.61751 3.8103 8.57665 3.77921 8.54668C3.74812 8.51671 3.70661 8.49997 3.66343 8.5H0.344762C0.321679 8.49994 0.298839 8.50471 0.277712 8.51401C0.256585 8.52331 0.23764 8.53694 0.222096 8.554C0.206577 8.57102 0.194722 8.59104 0.187267 8.61283C0.179813 8.63462 0.176918 8.65771 0.178762 8.68067C0.252651 9.56225 0.473475 10.4253 0.832096 11.234C0.845161 11.2636 0.866552 11.2887 0.89366 11.3064C0.920768 11.324 0.952422 11.3334 0.984762 11.3333H3.9581C3.98276 11.3332 4.00709 11.3277 4.02934 11.317C4.05159 11.3064 4.0712 11.291 4.08676 11.2718C4.10232 11.2527 4.11344 11.2304 4.11932 11.2064C4.1252 11.1825 4.12569 11.1575 4.12076 11.1333C3.95336 10.3189 3.85612 9.49168 3.8301 8.66067Z" fill="white"/>
<path d="M4.48662 12.4455C4.47518 12.4129 4.45391 12.3846 4.42574 12.3645C4.39756 12.3445 4.36387 12.3336 4.32928 12.3335H1.73995C1.70966 12.334 1.68009 12.3428 1.65442 12.3589C1.62874 12.3749 1.60793 12.3977 1.59422 12.4247C1.58051 12.4517 1.57442 12.4819 1.57661 12.5122C1.57879 12.5424 1.58916 12.5714 1.60661 12.5962C2.68001 14.1228 4.25235 15.2271 6.05262 15.7188C6.08739 15.7283 6.12429 15.7262 6.15779 15.713C6.19129 15.6997 6.21959 15.6759 6.23844 15.6452C6.25729 15.6145 6.26567 15.5785 6.26234 15.5426C6.25901 15.5067 6.24413 15.4729 6.21995 15.4462C5.44435 14.5741 4.85458 13.5531 4.48662 12.4455Z" fill="white"/>
<path d="M11.9508 12.3337C11.9162 12.3338 11.8825 12.3446 11.8543 12.3647C11.8261 12.3847 11.8049 12.413 11.7934 12.4457C11.4266 13.5527 10.8382 14.5734 10.0641 15.4457C10.0399 15.4724 10.025 15.5062 10.0217 15.5421C10.0184 15.578 10.0268 15.614 10.0456 15.6447C10.0645 15.6754 10.0928 15.6992 10.1263 15.7125C10.1598 15.7257 10.1967 15.7278 10.2314 15.7183C12.0317 15.2266 13.604 14.1223 14.6774 12.5957C14.6949 12.5709 14.7053 12.5419 14.7074 12.5117C14.7096 12.4815 14.7035 12.4512 14.6898 12.4242C14.6761 12.3972 14.6553 12.3744 14.6296 12.3584C14.604 12.3423 14.5744 12.3335 14.5441 12.333L11.9508 12.3337Z" fill="white"/>
<path d="M4.32938 3.66657C4.36396 3.66645 4.39766 3.65562 4.42583 3.63556C4.454 3.61551 4.47527 3.58721 4.48671 3.55457C4.85348 2.44733 5.44188 1.42637 6.21604 0.553908C6.24023 0.527192 6.2551 0.493357 6.25843 0.457475C6.26177 0.421592 6.25338 0.385596 6.23453 0.354882C6.21568 0.324168 6.18739 0.300391 6.15388 0.287114C6.12038 0.273837 6.08348 0.271777 6.04871 0.281242C4.24844 0.772954 2.67611 1.87729 1.60271 3.40391C1.58526 3.42866 1.57488 3.45771 1.5727 3.48792C1.57052 3.51813 1.57661 3.54836 1.59032 3.57537C1.60403 3.60238 1.62484 3.62514 1.65051 3.64121C1.67619 3.65728 1.70576 3.66605 1.73604 3.66657H4.32938Z" fill="white"/>
<path d="M16.1016 8.68067C16.1036 8.65769 16.1007 8.63456 16.0932 8.61274C16.0858 8.59092 16.0739 8.57088 16.0583 8.5539C16.0427 8.53692 16.0237 8.52336 16.0026 8.51409C15.9815 8.50481 15.9587 8.50001 15.9356 8.5H12.617C12.5738 8.49997 12.5323 8.51671 12.5012 8.54668C12.4701 8.57665 12.4518 8.61751 12.4503 8.66067C12.4242 9.49124 12.3269 10.318 12.1596 11.132C12.1547 11.1562 12.1552 11.1811 12.1611 11.2051C12.1669 11.229 12.1781 11.2514 12.1936 11.2705C12.2092 11.2896 12.2288 11.3051 12.251 11.3157C12.2733 11.3263 12.2976 11.3319 12.3223 11.332H15.2956C15.328 11.332 15.3596 11.3227 15.3867 11.305C15.4138 11.2874 15.4352 11.2623 15.4483 11.2327C15.8068 10.4244 16.0276 9.5618 16.1016 8.68067Z" fill="white"/>
<path d="M11.7934 3.55457C11.8049 3.58721 11.8261 3.61551 11.8543 3.63556C11.8825 3.65562 11.9162 3.66645 11.9508 3.66657H14.5401C14.5704 3.66605 14.6 3.65728 14.6256 3.64121C14.6513 3.62514 14.6721 3.60238 14.6858 3.57537C14.6995 3.54836 14.7056 3.51813 14.7034 3.48792C14.7013 3.45771 14.6909 3.42866 14.6734 3.40391C13.601 1.87805 12.0302 0.773792 10.2314 0.281242C10.1967 0.271777 10.1598 0.273837 10.1263 0.287114C10.0928 0.300391 10.0645 0.324168 10.0456 0.354882C10.0268 0.385596 10.0184 0.421592 10.0217 0.457475C10.025 0.493357 10.0399 0.527192 10.0641 0.553908C10.8383 1.42637 11.4267 2.44733 11.7934 3.55457Z" fill="white"/>
</g>
<defs>
<clipPath id="clip0_655_944">
<rect width="16" height="16" fill="white" transform="translate(0.140137)"/>
</clipPath>
</defs>
</svg>
