<svg width="190" height="38" viewBox="0 0 190 38" fill="none" xmlns="http://www.w3.org/2000/svg">
<path d="M29.7301 30.6109H0.889432C0.399291 30.6109 0.00195312 30.2134 0.00195312 29.723V27.2873C0.0194237 12.5565 11.7015 0.489119 26.4175 0.000194978C26.6482 -0.00472662 26.8711 0.0836999 27.0356 0.245568C27.2 0.407436 27.2921 0.628981 27.2907 0.859799V5.79299C27.2858 6.25743 26.9148 6.6349 26.4507 6.64764C17.0717 7.04306 9.1351 13.7083 7.12077 22.8811C7.06345 23.1445 7.12813 23.4196 7.29675 23.6298C7.46537 23.84 7.71988 23.9627 7.98926 23.9637H23.0859C23.576 23.9637 23.9734 23.5662 23.9734 23.0758V16.2434C23.9734 16.0155 24.0639 15.7969 24.225 15.6357C24.3861 15.4745 24.6046 15.384 24.8324 15.384H29.7539C29.9817 15.384 30.2002 15.4745 30.3613 15.6357C30.5224 15.7969 30.6129 16.0155 30.6129 16.2434V29.7278C30.6103 30.2144 30.2166 30.6083 29.7301 30.6109Z" fill="#0070E0"/>
<path d="M73.8902 18.0609C73.2327 26.5391 65.7736 31.6667 58.7089 31.6667C50.132 31.6667 43.2793 24.7695 43.2793 16.8787C43.4313 8.6053 50.2865 2.00746 58.6213 2.11257C66.2338 2.11257 71.0848 7.31264 72.2099 10.2064H68.9223C66.7061 6.73307 62.8357 4.64727 58.6943 4.69447C51.8477 4.6782 46.2698 10.1476 46.2016 16.944C46.2515 20.223 47.6152 23.3472 49.9912 25.6256C52.3672 27.904 55.5596 29.1488 58.8624 29.0848C64.9553 29.0848 69.4629 24.61 70.4711 20.6428H54.3986V18.0609H73.8902Z" fill="#212B36"/>
<path d="M77.0576 2.11133H79.1687V31.6667H77.0576V2.11133Z" fill="#212B36"/>
<path fill-rule="evenodd" clip-rule="evenodd" d="M105.556 19.427C105.5 13.3177 100.511 8.40563 94.4013 8.44506C88.2743 8.55232 83.3695 13.5605 83.3902 19.6882C83.4785 25.7971 88.494 30.6825 94.6034 30.6106C100.713 30.5386 105.612 25.5363 105.556 19.427ZM100.441 25.5465C98.8712 27.187 96.7078 28.1272 94.4376 28.1553C89.7914 28.0995 86.0565 24.313 86.0648 19.6666C86.0233 16.6807 87.578 13.8993 90.1432 12.3704C92.7085 10.8414 95.8946 10.7971 98.5015 12.2541C101.108 13.7111 102.74 16.4481 102.781 19.4341C102.854 21.7032 102.01 23.906 100.441 25.5465Z" fill="#212B36"/>
<path d="M108.724 2.11133H125.612V7.22263H114.537V14.4536H125.149V19.5649H114.537V26.5554H125.612V31.6667H108.724V2.11133Z" fill="#212B36"/>
<path fill-rule="evenodd" clip-rule="evenodd" d="M136.586 9.19055H131.945L131.96 38.0002H137.023V28.7413C138.689 30.5983 141.071 31.6089 143.533 31.5028C149.507 31.5028 154.112 26.2873 154.112 19.8999C154.112 14.5599 150.459 8.45072 143.533 8.45072C140.864 8.3492 138.309 9.56442 136.665 11.7177H136.586V9.19055ZM149.034 19.9954C149.135 23.5984 146.388 26.6165 142.867 26.7712V26.7492C141.171 26.6977 139.566 25.9553 138.408 24.6869C137.25 23.4186 136.635 21.7295 136.701 19.9954C136.629 18.244 137.252 16.5371 138.427 15.2615C139.603 13.986 141.232 13.2498 142.946 13.2197C146.062 13.2197 149.034 16.0252 149.034 19.9954Z" fill="#212B36"/>
<path fill-rule="evenodd" clip-rule="evenodd" d="M164.667 2.11133H157.278V6.98086H164.667V2.11133ZM164.667 9.49801H157.278V31.6664H164.667V9.49801Z" fill="#212B36"/>
<path fill-rule="evenodd" clip-rule="evenodd" d="M185.368 30.962H190V2.11084H184.946V11.2511C183.311 9.43269 180.968 8.46104 178.561 8.6029C172.489 8.77091 167.693 13.9474 167.837 20.1786C167.709 26.3883 172.509 31.5299 178.561 31.6662C182.136 31.6662 184.338 29.8763 185.289 28.3138H185.368V30.962ZM185.333 20.1196C185.333 23.3987 182.895 26.9051 179.098 26.9051H179.091C175.788 26.9051 172.843 23.9855 172.864 19.9362C172.864 16.9213 175.338 13.3341 179.098 13.3341C182.673 13.3341 185.333 16.5692 185.333 20.1196Z" fill="#212B36"/>
</svg>
