<svg width="16" height="16" viewBox="0 0 16 16" fill="none" xmlns="http://www.w3.org/2000/svg">
<path d="M11.6667 0H4.33333C3.1846 0.00176321 2.08343 0.458876 1.27115 1.27115C0.458876 2.08343 0.00176321 3.1846 0 4.33333L0 11.6667C0.00176321 12.8154 0.458876 13.9166 1.27115 14.7288C2.08343 15.5411 3.1846 15.9982 4.33333 16H11.6667C12.8154 15.9982 13.9166 15.5411 14.7288 14.7288C15.5411 13.9166 15.9982 12.8154 16 11.6667V4.33333C15.9982 3.1846 15.5411 2.08343 14.7288 1.27115C13.9166 0.458876 12.8154 0.00176321 11.6667 0V0ZM8 11.6667C7.2748 11.6667 6.56589 11.4516 5.96291 11.0487C5.35993 10.6458 4.88996 10.0732 4.61244 9.40317C4.33492 8.73318 4.26231 7.99593 4.40379 7.28467C4.54527 6.57341 4.89448 5.92007 5.40728 5.40728C5.92007 4.89448 6.57341 4.54527 7.28467 4.40379C7.99593 4.26231 8.73318 4.33492 9.40317 4.61244C10.0732 4.88996 10.6458 5.35993 11.0487 5.96291C11.4516 6.56589 11.6667 7.2748 11.6667 8C11.6667 8.97246 11.2804 9.90509 10.5927 10.5927C9.90509 11.2804 8.97246 11.6667 8 11.6667ZM12.3333 4.33333C12.1356 4.33333 11.9422 4.27468 11.7778 4.1648C11.6133 4.05492 11.4851 3.89874 11.4095 3.71602C11.3338 3.53329 11.314 3.33222 11.3525 3.13824C11.3911 2.94426 11.4864 2.76608 11.6262 2.62623C11.7661 2.48637 11.9443 2.39113 12.1382 2.35255C12.3322 2.31396 12.5333 2.33377 12.716 2.40945C12.8987 2.48514 13.0549 2.61331 13.1648 2.77776C13.2747 2.94221 13.3333 3.13555 13.3333 3.33333C13.3333 3.59855 13.228 3.8529 13.0404 4.04044C12.8529 4.22798 12.5985 4.33333 12.3333 4.33333Z" fill="white"/>
</svg>
