<svg width="16" height="16" viewBox="0 0 16 16" fill="none" xmlns="http://www.w3.org/2000/svg">
<path d="M4.3335 5.6665H1.66683C1.48273 5.6665 1.3335 5.81574 1.3335 5.99984V14.6665C1.3335 14.8506 1.48273 14.9998 1.66683 14.9998H4.3335C4.51759 14.9998 4.66683 14.8506 4.66683 14.6665V5.99984C4.66683 5.81574 4.51759 5.6665 4.3335 5.6665Z" fill="white"/>
<path d="M2.98683 4.33333C3.89994 4.33333 4.64016 3.58714 4.64016 2.66667C4.64016 1.74619 3.89994 1 2.98683 1C2.07372 1 1.3335 1.74619 1.3335 2.66667C1.3335 3.58714 2.07372 4.33333 2.98683 4.33333Z" fill="white"/>
<path d="M12.3333 15.0001H14.3333C14.4217 15.0001 14.5065 14.965 14.569 14.9025C14.6315 14.8399 14.6667 14.7552 14.6667 14.6668V9.06675C14.6667 6.55342 13.2467 5.33342 11.26 5.33342C10.8681 5.31909 10.4776 5.38702 10.1136 5.53285C9.74964 5.67868 9.42024 5.89916 9.14667 6.18009C9.11013 6.2223 9.06154 6.25231 9.00743 6.26609C8.95333 6.27986 8.8963 6.27674 8.84402 6.25713C8.79175 6.23753 8.74673 6.20239 8.71502 6.15643C8.68331 6.11048 8.66644 6.05592 8.66667 6.00009C8.66667 5.91168 8.63155 5.82689 8.56904 5.76438C8.50652 5.70187 8.42174 5.66675 8.33333 5.66675H6.33333C6.24493 5.66675 6.16014 5.70187 6.09763 5.76438C6.03512 5.82689 6 5.91168 6 6.00009V14.6668C6 14.7552 6.03512 14.8399 6.09763 14.9025C6.16014 14.965 6.24493 15.0001 6.33333 15.0001H8.33333C8.42174 15.0001 8.50652 14.965 8.56904 14.9025C8.63155 14.8399 8.66667 14.7552 8.66667 14.6668V9.66675C8.66667 9.22472 8.84226 8.8008 9.15482 8.48824C9.46738 8.17568 9.89131 8.00008 10.3333 8.00008C10.7754 8.00008 11.1993 8.17568 11.5118 8.48824C11.8244 8.8008 12 9.22472 12 9.66675V14.6668C12 14.7552 12.0351 14.8399 12.0976 14.9025C12.1601 14.965 12.2449 15.0001 12.3333 15.0001Z" fill="white"/>
</svg>
