<svg width="17" height="16" viewBox="0 0 17 16" fill="none" xmlns="http://www.w3.org/2000/svg">
<g clip-path="url(#clip0_655_959)">
<path d="M8.13997 0C6.72597 0.00158807 5.37034 0.564001 4.37049 1.56385C3.37064 2.5637 2.80823 3.91933 2.80664 5.33333C2.80664 7.67333 6.13997 13.35 7.57197 15.6827C7.63166 15.7797 7.7152 15.8598 7.81463 15.9153C7.91407 15.9709 8.02607 16 8.13997 16C8.25405 16.0005 8.36632 15.9715 8.46586 15.9158C8.5654 15.8601 8.64881 15.7795 8.70797 15.682C10.14 13.3507 13.4733 7.676 13.4733 5.33333C13.4717 3.91933 12.9093 2.5637 11.9095 1.56385C10.9096 0.564001 9.55397 0.00158807 8.13997 0V0ZM8.13997 7.66667C7.67848 7.66667 7.22736 7.52982 6.84364 7.27343C6.45993 7.01704 6.16086 6.65262 5.98425 6.22626C5.80765 5.7999 5.76144 5.33075 5.85147 4.87812C5.94151 4.4255 6.16374 4.00974 6.49006 3.68342C6.81638 3.3571 7.23214 3.13487 7.68476 3.04483C8.13738 2.9548 8.60654 3.00101 9.0329 3.17761C9.45926 3.35422 9.82368 3.65329 10.0801 4.037C10.3365 4.42072 10.4733 4.87184 10.4733 5.33333C10.4733 5.95217 10.2275 6.54566 9.78989 6.98325C9.3523 7.42083 8.75881 7.66667 8.13997 7.66667Z" fill="white"/>
</g>
<defs>
<clipPath id="clip0_655_959">
<rect width="16" height="16" fill="white" transform="translate(0.140137)"/>
</clipPath>
</defs>
</svg>
