<svg width="17" height="16" viewBox="0 0 17 16" fill="none" xmlns="http://www.w3.org/2000/svg">
<g clip-path="url(#clip0_655_938)">
<path d="M16.0599 3.88652L16.0533 3.87985C16.0066 3.85985 15.9533 3.86652 15.9199 3.89985L9.41995 10.3932V10.3865C8.69995 11.0999 7.53995 11.0999 6.82795 10.3865L0.326615 3.88652C0.286615 3.84652 0.233281 3.83985 0.193281 3.85985V3.85319C0.146615 3.86652 0.113281 3.91319 0.113281 3.95985V11.9599C0.113281 12.6932 0.706615 13.2865 1.44661 13.2865H14.7799L14.7733 13.2859C15.5066 13.2859 16.1066 12.6859 16.1066 11.9525V3.95252V3.94585C16.1066 3.89252 16.0733 3.85252 16.0266 3.83252L16.0599 3.88652Z" fill="white"/>
<path d="M7.55 9.69982C7.87 10.0198 8.39667 10.0198 8.72333 9.69315L15.1767 3.23315H15.17C15.2567 3.13982 15.29 3.00648 15.25 2.88648C15.17 2.66648 14.97 2.64648 14.79 2.64648H1.45667C1.27 2.64648 1.068 2.66648 0.989999 2.88582H0.983332C0.943332 2.99915 0.969999 3.13248 1.06333 3.22582L7.55 9.69982Z" fill="white"/>
</g>
<defs>
<clipPath id="clip0_655_938">
<rect width="16" height="16" fill="white" transform="translate(0.140137)"/>
</clipPath>
</defs>
</svg>
