<svg width="17" height="16" viewBox="0 0 17 16" fill="none" xmlns="http://www.w3.org/2000/svg">
<g clip-path="url(#clip0_655_931)">
<path d="M14.2068 9.18455C10.2038 8.36557 6.07645 8.36557 2.07347 9.18455C1.53831 9.30204 1.05761 9.59463 0.70745 10.016C0.357285 10.4374 0.15765 10.9636 0.140137 11.5112L0.140137 12.5112C0.140137 12.9532 0.315731 13.3772 0.628292 13.6897C0.940853 14.0023 1.36478 14.1779 1.8068 14.1779H3.8068C4.24883 14.1779 4.67275 14.0023 4.98531 13.6897C5.29788 13.3772 5.47347 12.9532 5.47347 12.5112V12.1479C7.24777 11.9905 9.03251 11.9905 10.8068 12.1479V12.5112C10.8068 12.9532 10.9824 13.3772 11.295 13.6897C11.6075 14.0023 12.0314 14.1779 12.4735 14.1779H14.4735C14.6923 14.1779 14.9091 14.1348 15.1113 14.051C15.3135 13.9673 15.4972 13.8445 15.652 13.6897C15.8067 13.535 15.9295 13.3512 16.0133 13.149C16.097 12.9468 16.1401 12.7301 16.1401 12.5112V11.5112C16.1226 10.9636 15.923 10.4374 15.5728 10.016C15.2227 9.59463 14.742 9.30204 14.2068 9.18455Z" fill="white"/>
<path d="M7.80697 6.67827C8.02798 6.67827 8.23994 6.59047 8.39622 6.43419C8.5525 6.27791 8.6403 6.06595 8.6403 5.84493V2.6556C8.6403 2.43459 8.5525 2.22262 8.39622 2.06634C8.23994 1.91006 8.02798 1.82227 7.80697 1.82227C7.58595 1.82227 7.37399 1.91006 7.21771 2.06634C7.06143 2.22262 6.97363 2.43459 6.97363 2.6556V5.84493C6.97363 6.06595 7.06143 6.27791 7.21771 6.43419C7.37399 6.59047 7.58595 6.67827 7.80697 6.67827Z" fill="white"/>
<path d="M10.9126 7.73318C11.0227 7.73338 11.1318 7.71168 11.2334 7.66933C11.335 7.62698 11.4272 7.56484 11.5046 7.48651L13.7319 5.24051C13.8876 5.0835 13.9746 4.87108 13.9736 4.64997C13.9727 4.42887 13.8839 4.21719 13.7269 4.06151C13.5699 3.90583 13.3575 3.81889 13.1364 3.81983C12.9153 3.82077 12.7036 3.9095 12.5479 4.06651L10.3206 6.31451C10.2048 6.43135 10.1261 6.57987 10.0946 6.74133C10.063 6.9028 10.08 7.06999 10.1433 7.22184C10.2066 7.3737 10.3134 7.50341 10.4503 7.59464C10.5872 7.68588 10.7481 7.73454 10.9126 7.73451V7.73318Z" fill="white"/>
<path d="M4.10892 7.48794C4.26452 7.64495 4.47611 7.73372 4.69715 7.73472C4.91819 7.73572 5.13058 7.64887 5.28759 7.49328C5.4446 7.33768 5.53336 7.12609 5.53436 6.90505C5.53537 6.684 5.44852 6.47162 5.29292 6.31461L3.06559 4.06661C2.90999 3.9096 2.6984 3.82083 2.47736 3.81983C2.25632 3.81883 2.04393 3.90568 1.88692 4.06128C1.72991 4.21687 1.64115 4.42846 1.64015 4.6495C1.63915 4.87055 1.72599 5.08293 1.88159 5.23994L4.10892 7.48794Z" fill="white"/>
</g>
<defs>
<clipPath id="clip0_655_931">
<rect width="16" height="16" fill="white" transform="translate(0.140137)"/>
</clipPath>
</defs>
</svg>
