<svg width="224" height="46" viewBox="0 0 224 46" fill="none" xmlns="http://www.w3.org/2000/svg">
<path d="M1.2124 15.5575L1.96404 13.7074C1.68073 14.3145 1.43789 14.9389 1.2124 15.5575ZM22.5068 0.48438C18.1757 0.48908 13.9372 1.73779 10.2954 4.08195C6.65359 6.42612 3.7618 9.76707 1.96404 13.7074L16.0832 21.6573L18.5 23.0334L19.0782 22.7096L30.0058 16.6734L30.1619 16.5867L41.2225 10.4349C39.1573 7.36939 36.3703 4.85857 33.1067 3.12343C29.8431 1.38828 26.203 0.482006 22.5068 0.48438ZM18.4595 20.3449L5.20185 12.8748C6.81445 10.1287 9.05704 7.80561 11.7445 6.09717C14.432 4.38873 17.4872 3.34398 20.6581 3.04915C23.8289 2.75431 27.0244 3.21786 29.9808 4.40153C32.9372 5.58519 35.5696 7.45503 37.6609 9.85668L18.4595 20.3449Z" fill="#00B0ED"/>
<path d="M39.0196 34.516L4.14954 14.9388L1.98137 13.6899C1.6086 14.5111 1.28804 15.355 1.02159 16.2166C-0.520417 21.1676 -0.311604 26.4985 1.61295 31.3137C3.5375 36.129 7.06055 40.1352 11.5903 42.6595C16.12 45.1838 21.3805 46.0723 26.488 45.1758C31.5955 44.2793 36.2389 41.6525 39.6382 37.7365C40.1925 37.1058 40.7099 36.4436 41.1878 35.7533L39.0196 34.516ZM22.5819 43.0499C19.4739 43.0464 16.409 42.3231 13.6273 40.9367C10.8456 39.5503 8.42281 37.5385 6.54878 35.0591C4.67475 32.5796 3.40043 29.6998 2.82568 26.6454C2.25093 23.591 2.39138 20.4449 3.23602 17.4539L37.418 36.4992C35.5377 38.5641 33.2467 40.2134 30.6918 41.3414C28.137 42.4695 25.3747 43.0514 22.5819 43.0499Z" fill="#FF0000"/>
<path d="M40.0311 15.1874L26.5942 22.4551L25.5708 23.0333L26.6751 23.6115L40.0311 30.9024L41.1874 31.5384V14.563L40.0311 15.1874ZM40.0311 29.8212L27.6696 23.0854L40.0311 16.3438V29.8212Z" fill="#FFCC2E"/>
<path fill-rule="evenodd" clip-rule="evenodd" d="M213.276 29.5392V24.842H222.48V20.3685H213.276V16.4094H222.927V12.0142H213.276H206.666V16.4094V20.3685V24.842V29.5392V33.9456H213.276H223.196V29.5392H213.276Z" fill="#0A2540"/>
<path fill-rule="evenodd" clip-rule="evenodd" d="M139.776 29.5401V24.8317H148.991V20.3582H139.776V16.3991H149.438V12.0039H139.776H133.166V16.3991V20.3582V24.8317V29.5401V33.9353H139.776H149.707V29.5401H139.776Z" fill="#0A2540"/>
<path fill-rule="evenodd" clip-rule="evenodd" d="M192.698 21.8567V26.3302H195.595V28.8242C195.103 28.9472 188.515 30.457 186.413 25.2118C186.413 25.2118 184.333 20.112 189.902 17.0253C189.902 17.0253 194.599 14.7102 200.996 18.4456V13.2899C200.996 13.2899 189.88 9.28608 183.259 14.2069C183.259 14.2069 179.389 16.7009 179.311 22.9303C179.246 24.9032 179.721 26.8563 180.685 28.5789C181.649 30.3016 183.065 31.7282 184.78 32.705C184.78 32.705 191.099 36.3397 201.455 32.4477V21.8567H192.698Z" fill="#0A2540"/>
<path fill-rule="evenodd" clip-rule="evenodd" d="M171.403 13.692C167.802 11.6342 160.711 12.0033 160.711 12.0033H160.007H154.135V33.9571H165.968C167.362 33.9909 168.753 33.7944 170.083 33.3755C171.795 32.7595 173.306 31.6865 174.451 30.2729C175.597 28.8593 176.333 27.1592 176.581 25.3567C177.011 23.1164 176.745 20.7982 175.819 18.7132C174.894 16.6283 173.353 14.8762 171.403 13.692ZM169.67 25.7705C168.551 29.6289 163.563 29.4053 163.563 29.4053H160.711V16.4544H164.268C165.034 16.5143 165.787 16.6838 166.505 16.9577C167.298 17.3169 168.013 17.8301 168.607 18.4675C170.676 21.3865 169.927 24.1041 169.67 25.7705Z" fill="#0A2540"/>
<path fill-rule="evenodd" clip-rule="evenodd" d="M126.087 11.8359H125.136V29.0143L110.206 11.8359H107.645V33.9463H110.653V32.3023V16.9134L125.427 33.9463H128.156V11.8359H126.087Z" fill="#0A2540"/>
<path fill-rule="evenodd" clip-rule="evenodd" d="M103.159 24.3842V11.8359H99.9718V24.3842L99.8712 26.8893C99.7088 27.7936 99.3141 28.6402 98.7259 29.346C98.1378 30.0519 97.3762 30.5927 96.516 30.9155C94.5928 31.56 92.5119 31.56 90.5886 30.9155C88.5979 29.7971 88.2288 29.1149 88.2288 29.1149C87.4571 28.1643 87.2894 25.8716 87.267 24.3842V11.8359H84.0908V25.0328C84.0908 25.7262 84.2138 27.0235 84.2138 27.0235C84.3475 28.2083 84.7454 29.348 85.3784 30.3585C86.0114 31.3689 86.8632 32.2243 87.8709 32.8615C90.2966 34.0521 93.0302 34.4661 95.6996 34.047C96.8772 33.9009 98.0132 33.5185 99.0394 32.9228C100.066 32.327 100.961 31.5302 101.672 30.58C103.383 28.3991 103.159 24.3842 103.159 24.3842Z" fill="#0A2540"/>
<path fill-rule="evenodd" clip-rule="evenodd" d="M80.7255 30.4684L78.0526 26.3416C77.232 25.2426 76.2692 24.2572 75.1896 23.4114C76.2952 22.973 77.2427 22.211 77.908 21.2251C78.5733 20.2392 78.9254 19.0754 78.9182 17.886C78.9109 16.6967 78.5447 15.5372 77.8674 14.5595C77.1901 13.5818 76.2334 12.8314 75.1225 12.4065C73.6712 11.9773 72.1619 11.7773 70.6489 11.8138H66.0859V33.9465H69.2174V24.3173C71.689 24.1719 71.7226 24.4179 72.2482 24.6752C72.7771 24.9967 73.2718 25.3714 73.7245 25.7935C74.4402 26.0731 79.3164 33.9018 79.3164 33.9018H83.0853L80.7255 30.4684ZM71.6219 21.5213H69.2174V14.5874H71.7226C76.1961 14.7216 75.5698 18.3787 75.5698 18.3787C75.3126 21.8121 71.6219 21.5213 71.6219 21.5213Z" fill="#0A2540"/>
<path fill-rule="evenodd" clip-rule="evenodd" d="M56.915 11.8022H52.5198H49.2988V33.9462H52.4415V24.3393H55.3269C56.5603 24.3794 57.792 24.217 58.9728 23.8584C60.1522 23.5186 61.1926 22.8117 61.9427 21.8403C62.6929 20.8689 63.1138 19.6836 63.1444 18.4566C63.5134 12.0036 56.915 11.8022 56.915 11.8022ZM60.0017 18.4007C59.8563 21.7558 55.9867 21.5322 55.9867 21.5322H52.5198V14.5982H55.7966C56.6498 14.5155 57.5098 14.6582 58.2906 15.012C58.8968 15.3214 59.3867 15.8186 59.687 16.4294C59.9874 17.0401 60.0821 17.7317 59.957 18.4007H60.0017Z" fill="#0A2540"/>
</svg>
