<svg width="56" height="52" viewBox="0 0 56 52" fill="none" xmlns="http://www.w3.org/2000/svg">
<path d="M21.0352 29.3003V51.52H0.700012V34.1145C0.700012 24.6625 1.83508 17.8201 4.10523 13.5872C7.08772 7.94466 11.8067 3.67724 18.2622 0.784973L22.8839 8.19154C18.9659 9.80371 16.0814 12.2016 14.2303 15.3852C12.3792 18.5688 11.3458 23.2053 11.1301 29.2947L21.0352 29.3003ZM53.7564 29.3003V51.52H33.4212V34.1145C33.4212 24.6625 34.5562 17.8201 36.8264 13.5872C39.8089 7.94466 44.5279 3.67724 50.9834 0.784973L55.605 8.19154C51.6871 9.80371 48.8026 12.2016 46.9515 15.3852C45.1003 18.5688 44.0669 23.2053 43.8513 29.2947L53.7564 29.3003Z" fill="white"/>
</svg>
