<svg width="120" height="30" viewBox="0 0 120 30" fill="none" xmlns="http://www.w3.org/2000/svg">
<path d="M21.2878 1.39336C21.3824 1.48797 21.4296 1.60302 21.4296 1.73853V5.71816C21.4296 5.85367 21.3824 5.96872 21.2878 6.06333C21.1932 6.15793 21.0782 6.20523 20.9428 6.20523H13.6773C13.5419 6.20523 13.4742 6.27298 13.4742 6.40849V29.1881C13.4742 29.3236 13.4269 29.4387 13.3323 29.5333C13.2378 29.6279 13.1228 29.6752 12.9873 29.6752H8.23912C8.10368 29.6752 7.98867 29.6279 7.89412 29.5333C7.79956 29.4387 7.75229 29.3236 7.75229 29.1881V6.40849C7.75229 6.27298 7.68456 6.20523 7.54912 6.20523H0.486834C0.351389 6.20523 0.236391 6.15793 0.141835 6.06333C0.0472798 5.96872 0 5.85367 0 5.71816V1.73853C0 1.60302 0.0472798 1.48797 0.141835 1.39336C0.236391 1.29876 0.351389 1.25146 0.486834 1.25146H20.9415C21.0782 1.25146 21.192 1.29876 21.2878 1.39336Z" fill="white"/>
<path d="M31.6163 9.39238C32.9963 10.0009 34.0722 10.8344 34.8427 11.8904C35.6132 12.9463 35.9991 14.1237 35.9991 15.4225V29.1883C35.9991 29.3238 35.9518 29.4388 35.8572 29.5334C35.7627 29.628 35.6477 29.6753 35.5122 29.6753H30.764C30.6286 29.6753 30.5135 29.628 30.419 29.5334C30.3244 29.4388 30.2772 29.3238 30.2772 29.1883V27.8485C30.2772 27.7667 30.2503 27.713 30.1954 27.6862C30.1404 27.6593 30.0868 27.6862 30.0331 27.7667C28.8972 29.256 27.0699 30 24.554 30C22.4431 30 20.7385 29.4861 19.4403 28.457C18.1421 27.4292 17.4917 25.913 17.4917 23.9085C17.4917 21.8247 18.2226 20.2076 19.6831 19.0557C21.1436 17.9052 23.2276 17.3299 25.9327 17.3299H30.0727C30.2082 17.3299 30.2759 17.2621 30.2759 17.1266V16.233C30.2759 15.3394 30.005 14.6427 29.4645 14.1416C28.9227 13.6405 28.1113 13.3899 27.029 13.3899C26.1895 13.3899 25.4932 13.5395 24.9386 13.8361C24.384 14.1339 24.025 14.5532 23.8627 15.0953C23.7809 15.3931 23.6046 15.5287 23.335 15.5018L18.4245 14.8524C18.0999 14.7987 17.9504 14.6772 17.9785 14.4868C18.0859 13.3503 18.5395 12.3212 19.3381 11.4007C20.1354 10.4803 21.1909 9.76311 22.5044 9.2492C23.8167 8.73529 25.2849 8.47705 26.9077 8.47705C28.6672 8.47833 30.2363 8.78387 31.6163 9.39238ZM29.0594 24.8021C29.8708 24.1795 30.2772 23.3805 30.2772 22.4064V20.9452C30.2772 20.8097 30.2094 20.7419 30.074 20.7419H27.1517C25.934 20.7419 24.9808 20.972 24.2908 21.4323C23.6008 21.8925 23.2558 22.5432 23.2558 23.3818C23.2558 24.1131 23.5126 24.6883 24.0263 25.1076C24.5399 25.527 25.2299 25.7366 26.0963 25.7366C27.2603 25.7366 28.248 25.4247 29.0594 24.8021Z" fill="white"/>
<path d="M40.1594 29.532C40.0649 29.4374 40.0176 29.3224 40.0176 29.1869V1.73853C40.0176 1.60302 40.0649 1.48797 40.1594 1.39336C40.254 1.29876 40.369 1.25146 40.5044 1.25146H45.2526C45.3881 1.25146 45.5031 1.29876 45.5976 1.39336C45.6922 1.48797 45.7395 1.60302 45.7395 1.73853V29.1881C45.7395 29.3236 45.6922 29.4387 45.5976 29.5333C45.5031 29.6279 45.3881 29.6752 45.2526 29.6752H40.5044C40.369 29.6752 40.254 29.6279 40.1594 29.532Z" fill="white"/>
<path d="M62.7657 13.2495C62.6712 13.3441 62.5562 13.3914 62.4207 13.3914H58.5248C58.3893 13.3914 58.3216 13.4591 58.3216 13.5946V22.2033C58.3216 23.0969 58.5043 23.7604 58.8698 24.1925C59.2352 24.6259 59.823 24.8419 60.6357 24.8419H61.9748C62.1102 24.8419 62.2252 24.8892 62.3198 24.9838C62.4143 25.0784 62.4616 25.1935 62.4616 25.329V29.1859C62.4616 29.4838 62.2993 29.6602 61.9748 29.7139C60.8388 29.7676 60.0262 29.7944 59.5393 29.7944C57.293 29.7944 55.6153 29.4224 54.5062 28.6784C53.3958 27.9343 52.8284 26.5332 52.8016 24.4763V13.5934C52.8016 13.4578 52.7339 13.3901 52.5984 13.3901H50.2857C50.1502 13.3901 50.0352 13.3428 49.9407 13.2482C49.8461 13.1536 49.7988 13.0385 49.7988 12.903V9.28901C49.7988 9.1535 49.8461 9.03973 49.9407 8.94385C50.0352 8.84925 50.1502 8.80195 50.2857 8.80195H52.5984C52.7339 8.80195 52.8016 8.73419 52.8016 8.59868V3.76636C52.8016 3.63085 52.8489 3.5158 52.9434 3.4212C53.038 3.3266 53.153 3.2793 53.2884 3.2793H57.8348C57.9702 3.2793 58.084 3.3266 58.1798 3.4212C58.2743 3.5158 58.3216 3.63085 58.3216 3.76636V8.59868C58.3216 8.73419 58.3893 8.80195 58.5248 8.80195H62.4207C62.5562 8.80195 62.6712 8.84925 62.7657 8.94385C62.8603 9.03845 62.9076 9.1535 62.9076 9.28901V12.903C62.9076 13.0411 62.8603 13.1561 62.7657 13.2495Z" fill="white"/>
<path d="M79.6695 9.08793C79.8855 9.19659 79.9672 9.39986 79.9136 9.69644L79.0613 14.3255C79.0345 14.6502 78.8441 14.7448 78.4927 14.6093C78.0863 14.4738 77.6136 14.406 77.0718 14.406C76.8546 14.406 76.5581 14.4329 76.1786 14.4879C75.2049 14.5684 74.3795 14.9276 73.7023 15.5643C73.0263 16.2009 72.6877 17.0459 72.6877 18.1019V29.1868C72.6877 29.3223 72.6404 29.4373 72.5459 29.5319C72.4513 29.6265 72.3363 29.6738 72.2009 29.6738H67.4527C67.3172 29.6738 67.2022 29.6265 67.1077 29.5319C67.0131 29.4373 66.9658 29.3223 66.9658 29.1868V9.29119C66.9658 9.15568 67.0131 9.0419 67.1077 8.94602C67.2022 8.85142 67.3172 8.80413 67.4527 8.80413H72.2009C72.3363 8.80413 72.4513 8.85142 72.5459 8.94602C72.6404 9.04063 72.6877 9.15568 72.6877 9.29119V10.8342C72.6877 10.9147 72.7146 10.9697 72.7695 10.9966C72.8232 11.0234 72.864 11.0106 72.8909 10.9557C74 9.33082 75.4886 8.51904 77.3555 8.51904C78.3304 8.51904 79.1009 8.70952 79.6695 9.08793Z" fill="white"/>
<path d="M84.4229 5.50219C83.8147 4.89368 83.5093 4.1292 83.5093 3.20748C83.5093 2.26019 83.807 1.48932 84.4025 0.893594C84.9966 0.297864 85.7684 0 86.7152 0C87.6621 0 88.4326 0.297864 89.0293 0.893594C89.6247 1.48932 89.9225 2.26147 89.9225 3.20748C89.9225 4.12792 89.6183 4.8924 89.0088 5.50219C88.4006 6.11071 87.6352 6.41624 86.7152 6.41624C85.7952 6.41624 85.0311 6.11199 84.4229 5.50219ZM83.9361 29.5001C83.8415 29.4055 83.7942 29.2905 83.7942 29.155V9.21847C83.7942 9.08296 83.8415 8.96791 83.9361 8.87331C84.0306 8.77871 84.1456 8.73141 84.2811 8.73141H89.0293C89.1647 8.73141 89.2797 8.77871 89.3743 8.87331C89.4688 8.96791 89.5161 9.08296 89.5161 9.21847V29.155C89.5161 29.2905 89.4688 29.4055 89.3743 29.5001C89.2797 29.5947 89.1647 29.642 89.0293 29.642H84.2811C84.1456 29.642 84.0306 29.596 83.9361 29.5001Z" fill="white"/>
<path d="M99.9824 29.4926C99.9147 29.3711 99.9351 29.2292 100.044 29.0669L106.578 19.3626C106.632 19.2808 106.632 19.2003 106.578 19.1184L100.044 9.41418C99.9888 9.30679 99.9632 9.21091 99.9632 9.13037C99.9632 8.91432 100.099 8.80566 100.37 8.80566H105.442C105.685 8.80566 105.874 8.91432 106.011 9.13037L109.664 14.6939C109.771 14.8563 109.867 14.8563 109.948 14.6939L113.601 9.13037C113.736 8.91432 113.925 8.80566 114.17 8.80566H119.608C119.797 8.80566 119.918 8.86703 119.973 8.98847C120.027 9.10992 120 9.2531 119.891 9.41545L113.398 19.1197C113.371 19.2015 113.371 19.2821 113.398 19.3639L119.891 29.0682C119.945 29.15 119.973 29.2446 119.973 29.352C119.973 29.5693 119.852 29.6767 119.608 29.6767H114.494C114.25 29.6767 114.061 29.5693 113.925 29.352L110.272 23.7884C110.191 23.626 110.11 23.626 110.028 23.7884L106.375 29.352C106.24 29.5693 106.051 29.6767 105.806 29.6767H100.368C100.178 29.6754 100.049 29.614 99.9824 29.4926Z" fill="white"/>
<path d="M96.3902 9.4126L102.857 19.0159C102.902 19.0823 102.925 19.159 102.925 19.2383C102.925 19.3176 102.901 19.3955 102.857 19.4607L96.2842 29.2161" stroke="#0DB4D7" stroke-width="1.63359" stroke-miterlimit="10"/>
<path d="M92.3311 9.4126L98.798 19.0159C98.8427 19.0823 98.8657 19.159 98.8657 19.2383C98.8657 19.3176 98.8414 19.3955 98.798 19.4607L92.2251 29.2161" stroke="#0DB4D7" stroke-width="1.63359" stroke-miterlimit="10"/>
</svg>
