<svg width="120" height="30" viewBox="0 0 120 30" fill="none" xmlns="http://www.w3.org/2000/svg">
<path d="M21.2878 1.3933C21.3824 1.4879 21.4296 1.60295 21.4296 1.73846V5.71809C21.4296 5.8536 21.3824 5.96866 21.2878 6.06326C21.1932 6.15786 21.0782 6.20516 20.9428 6.20516H13.6773C13.5419 6.20516 13.4742 6.27291 13.4742 6.40842V29.1881C13.4742 29.3236 13.4269 29.4386 13.3323 29.5332C13.2378 29.6278 13.1228 29.6751 12.9873 29.6751H8.23912C8.10368 29.6751 7.98867 29.6278 7.89412 29.5332C7.79956 29.4386 7.75229 29.3236 7.75229 29.1881V6.40842C7.75229 6.27291 7.68456 6.20516 7.54912 6.20516H0.486834C0.351389 6.20516 0.236391 6.15786 0.141835 6.06326C0.0472798 5.96866 0 5.8536 0 5.71809V1.73846C0 1.60295 0.0472798 1.4879 0.141835 1.3933C0.236391 1.29869 0.351389 1.2514 0.486834 1.2514H20.9415C21.0782 1.2514 21.192 1.29869 21.2878 1.3933Z" fill="#1E4486"/>
<path d="M31.6163 9.39246C32.9963 10.001 34.0722 10.8345 34.8427 11.8904C35.6132 12.9464 35.9991 14.1238 35.9991 15.4226V29.1883C35.9991 29.3239 35.9518 29.4389 35.8572 29.5335C35.7627 29.6281 35.6477 29.6754 35.5122 29.6754H30.764C30.6286 29.6754 30.5135 29.6281 30.419 29.5335C30.3244 29.4389 30.2772 29.3239 30.2772 29.1883V27.8486C30.2772 27.7668 30.2503 27.7131 30.1954 27.6862C30.1404 27.6594 30.0868 27.6862 30.0331 27.7668C28.8972 29.2561 27.0699 30.0001 24.554 30.0001C22.4431 30.0001 20.7385 29.4862 19.4403 28.4571C18.1421 27.4293 17.4917 25.9131 17.4917 23.9086C17.4917 21.8248 18.2226 20.2076 19.6831 19.0558C21.1436 17.9053 23.2276 17.33 25.9327 17.33H30.0727C30.2082 17.33 30.2759 17.2622 30.2759 17.1267V16.2331C30.2759 15.3395 30.005 14.6428 29.4645 14.1417C28.9227 13.6406 28.1113 13.39 27.029 13.39C26.1895 13.39 25.4932 13.5396 24.9386 13.8361C24.384 14.134 24.025 14.5533 23.8627 15.0954C23.7809 15.3932 23.6046 15.5287 23.335 15.5019L18.4245 14.8525C18.0999 14.7988 17.9504 14.6773 17.9785 14.4868C18.0859 13.3504 18.5395 12.3213 19.3381 11.4008C20.1354 10.4804 21.1909 9.76319 22.5044 9.24928C23.8167 8.73537 25.2849 8.47713 26.9077 8.47713C28.6672 8.47841 30.2363 8.78395 31.6163 9.39246ZM29.0594 24.8022C29.8708 24.1796 30.2772 23.3806 30.2772 22.4065V20.9453C30.2772 20.8098 30.2094 20.742 30.074 20.742H27.1517C25.934 20.742 24.9808 20.9721 24.2908 21.4323C23.6008 21.8926 23.2558 22.5433 23.2558 23.3819C23.2558 24.1131 23.5126 24.6884 24.0263 25.1077C24.5399 25.527 25.2299 25.7367 26.0963 25.7367C27.2603 25.7367 28.248 25.4248 29.0594 24.8022Z" fill="#1E4486"/>
<path d="M40.1594 29.532C40.0649 29.4374 40.0176 29.3223 40.0176 29.1868V1.73846C40.0176 1.60295 40.0649 1.4879 40.1594 1.3933C40.254 1.29869 40.369 1.2514 40.5044 1.2514H45.2526C45.3881 1.2514 45.5031 1.29869 45.5976 1.3933C45.6922 1.4879 45.7395 1.60295 45.7395 1.73846V29.1881C45.7395 29.3236 45.6922 29.4386 45.5976 29.5332C45.5031 29.6278 45.3881 29.6751 45.2526 29.6751H40.5044C40.369 29.6751 40.254 29.6278 40.1594 29.532Z" fill="#1E4486"/>
<path d="M62.7657 13.2493C62.6712 13.3439 62.5562 13.3912 62.4207 13.3912H58.5248C58.3893 13.3912 58.3216 13.4589 58.3216 13.5944V22.2031C58.3216 23.0967 58.5043 23.7602 58.8698 24.1923C59.2352 24.6257 59.823 24.8417 60.6357 24.8417H61.9748C62.1102 24.8417 62.2252 24.889 62.3198 24.9836C62.4143 25.0782 62.4616 25.1933 62.4616 25.3288V29.1857C62.4616 29.4835 62.2993 29.66 61.9748 29.7136C60.8388 29.7673 60.0262 29.7942 59.5393 29.7942C57.293 29.7942 55.6153 29.4222 54.5062 28.6782C53.3958 27.9341 52.8284 26.533 52.8016 24.4761V13.5931C52.8016 13.4576 52.7339 13.3899 52.5984 13.3899H50.2857C50.1502 13.3899 50.0352 13.3426 49.9407 13.248C49.8461 13.1534 49.7988 13.0383 49.7988 12.9028V9.2888C49.7988 9.15329 49.8461 9.03951 49.9407 8.94363C50.0352 8.84903 50.1502 8.80173 50.2857 8.80173H52.5984C52.7339 8.80173 52.8016 8.73398 52.8016 8.59847V3.76615C52.8016 3.63064 52.8489 3.51559 52.9434 3.42098C53.038 3.32638 53.153 3.27908 53.2884 3.27908H57.8348C57.9702 3.27908 58.084 3.32638 58.1798 3.42098C58.2743 3.51559 58.3216 3.63064 58.3216 3.76615V8.59847C58.3216 8.73398 58.3893 8.80173 58.5248 8.80173H62.4207C62.5562 8.80173 62.6712 8.84903 62.7657 8.94363C62.8603 9.03823 62.9076 9.15329 62.9076 9.2888V12.9028C62.9076 13.0409 62.8603 13.1559 62.7657 13.2493Z" fill="#1E4486"/>
<path d="M79.6695 9.08804C79.8855 9.1967 79.9672 9.39997 79.9136 9.69655L79.0613 14.3256C79.0345 14.6503 78.8441 14.7449 78.4927 14.6094C78.0863 14.4739 77.6136 14.4061 77.0718 14.4061C76.8546 14.4061 76.5581 14.433 76.1786 14.488C75.2049 14.5685 74.3795 14.9277 73.7023 15.5644C73.0263 16.201 72.6877 17.046 72.6877 18.102V29.1869C72.6877 29.3224 72.6404 29.4375 72.5459 29.5321C72.4513 29.6267 72.3363 29.674 72.2009 29.674H67.4527C67.3172 29.674 67.2022 29.6267 67.1077 29.5321C67.0131 29.4375 66.9658 29.3224 66.9658 29.1869V9.2913C66.9658 9.15579 67.0131 9.04201 67.1077 8.94614C67.2022 8.85153 67.3172 8.80424 67.4527 8.80424H72.2009C72.3363 8.80424 72.4513 8.85153 72.5459 8.94614C72.6404 9.04074 72.6877 9.15579 72.6877 9.2913V10.8343C72.6877 10.9149 72.7146 10.9698 72.7695 10.9967C72.8232 11.0235 72.864 11.0107 72.8909 10.9558C74 9.33093 75.4886 8.51915 77.3555 8.51915C78.3304 8.51915 79.1009 8.70964 79.6695 9.08804Z" fill="#1E4486"/>
<path d="M84.4229 5.50219C83.8147 4.89368 83.5093 4.1292 83.5093 3.20748C83.5093 2.26019 83.807 1.48932 84.4025 0.893594C84.9966 0.297864 85.7684 0 86.7152 0C87.6621 0 88.4326 0.297864 89.0293 0.893594C89.6247 1.48932 89.9225 2.26147 89.9225 3.20748C89.9225 4.12792 89.6183 4.8924 89.0088 5.50219C88.4006 6.11071 87.6352 6.41624 86.7152 6.41624C85.7952 6.41624 85.0311 6.11199 84.4229 5.50219ZM83.9361 29.5001C83.8415 29.4055 83.7942 29.2905 83.7942 29.155V9.21847C83.7942 9.08296 83.8415 8.96791 83.9361 8.87331C84.0306 8.77871 84.1456 8.73141 84.2811 8.73141H89.0293C89.1647 8.73141 89.2797 8.77871 89.3743 8.87331C89.4688 8.96791 89.5161 9.08296 89.5161 9.21847V29.155C89.5161 29.2905 89.4688 29.4055 89.3743 29.5001C89.2797 29.5947 89.1647 29.642 89.0293 29.642H84.2811C84.1456 29.642 84.0306 29.596 83.9361 29.5001Z" fill="#1E4486"/>
<path d="M99.9824 29.4925C99.9147 29.371 99.9351 29.2291 100.044 29.0667L106.578 19.3625C106.632 19.2807 106.632 19.2001 106.578 19.1183L100.044 9.41404C99.9888 9.30666 99.9632 9.21078 99.9632 9.13024C99.9632 8.91419 100.099 8.80553 100.37 8.80553H105.442C105.685 8.80553 105.874 8.91419 106.011 9.13024L109.664 14.6938C109.771 14.8562 109.867 14.8562 109.948 14.6938L113.601 9.13024C113.736 8.91419 113.925 8.80553 114.17 8.80553H119.608C119.797 8.80553 119.918 8.86689 119.973 8.98834C120.027 9.10979 120 9.25297 119.891 9.41532L113.398 19.1196C113.371 19.2014 113.371 19.2819 113.398 19.3638L119.891 29.068C119.945 29.1498 119.973 29.2444 119.973 29.3518C119.973 29.5691 119.852 29.6765 119.608 29.6765H114.494C114.25 29.6765 114.061 29.5691 113.925 29.3518L110.272 23.7883C110.191 23.6259 110.11 23.6259 110.028 23.7883L106.375 29.3518C106.24 29.5691 106.051 29.6765 105.806 29.6765H100.368C100.178 29.6753 100.049 29.6139 99.9824 29.4925Z" fill="#1E4486"/>
<path d="M96.3907 9.41283L102.858 19.0161C102.902 19.0826 102.925 19.1593 102.925 19.2385C102.925 19.3178 102.901 19.3958 102.858 19.461L96.2847 29.2164" stroke="#0DB4D7" stroke-width="1.63359" stroke-miterlimit="10"/>
<path d="M92.3311 9.41283L98.798 19.0161C98.8427 19.0826 98.8657 19.1593 98.8657 19.2385C98.8657 19.3178 98.8414 19.3958 98.798 19.461L92.2251 29.2164" stroke="#0DB4D7" stroke-width="1.63359" stroke-miterlimit="10"/>
</svg>
