<svg width="173" height="14" viewBox="0 0 173 14" fill="none" xmlns="http://www.w3.org/2000/svg">
<path d="M170.14 13.2289C170.819 13.7039 171.754 13.5387 172.229 12.86C172.704 12.1813 172.539 11.246 171.86 10.771L170.14 13.2289ZM1.24343 13.48C24.1422 9.71402 60.1089 5.19485 93.5611 3.87731C110.289 3.21845 126.349 3.362 139.814 4.78981C153.351 6.22523 164.006 8.93634 170.14 13.2289L171.86 10.771C165.054 6.00802 153.725 3.24811 140.131 1.80653C126.464 0.357341 110.244 0.217904 93.443 0.879634C59.8357 2.20328 23.7417 6.73959 0.756575 10.5198L1.24343 13.48Z" fill="#0DB4D7"/>
</svg>
