<svg width="150" height="14" viewBox="0 0 150 14" fill="none" xmlns="http://www.w3.org/2000/svg">
<path d="M147.56 13.169C148.206 13.6881 149.15 13.5854 149.669 12.9397C150.188 12.2941 150.085 11.3499 149.44 10.8308L147.56 13.169ZM0.778441 13.4739C20.7026 9.70997 51.9974 5.1935 81.099 3.87694C95.6524 3.21854 109.612 3.36273 121.306 4.78717C133.071 6.22005 142.275 8.92053 147.56 13.169L149.44 10.8308C143.46 6.02383 133.526 3.25329 121.669 1.80917C109.743 0.35661 95.6006 0.217814 80.9634 0.880005C51.6838 2.20462 20.2434 6.74364 0.221559 10.526L0.778441 13.4739Z" fill="#0DB4D7"/>
</svg>
